<svg xmlns="http://www.w3.org/2000/svg" version="1.1" viewBox="0 0 650.66015625 551.3750291383406" width="650.66015625" height="551.3750291383406">
  <!-- svg-source:excalidraw -->
  
  <defs>
    <style class="style-fonts">
      @font-face {
        font-family: "Virgil";
        src: url("https://excalidraw.com/Virgil.woff2");
      }
      @font-face {
        font-family: "Cascadia";
        src: url("https://excalidraw.com/Cascadia.woff2");
      }
      @font-face {
        font-family: "Assistant";
        src: url("https://excalidraw.com/Assistant-Regular.woff2");
      }
    </style>
    
  </defs>
  <rect x="0" y="0" width="650.66015625" height="551.3750291383406" fill="#ffffff"/><g stroke-linecap="round"><g transform="translate(10 285.6171866383405) rotate(0 307.865234375 0)"><path d="M0 0 C102.62 0, 513.11 0, 615.73 0 M0 0 C102.62 0, 513.11 0, 615.73 0" stroke="#1e1e1e" stroke-width="2" fill="none"/></g><g transform="translate(10 285.6171866383405) rotate(0 307.865234375 0)"><path d="M592.24 8.55 C598.97 6.1, 605.71 3.65, 615.73 0 M592.24 8.55 C599.1 6.05, 605.97 3.55, 615.73 0" stroke="#1e1e1e" stroke-width="2" fill="none"/></g><g transform="translate(10 285.6171866383405) rotate(0 307.865234375 0)"><path d="M592.24 -8.55 C598.97 -6.1, 605.71 -3.65, 615.73 0 M592.24 -8.55 C599.1 -6.05, 605.97 -3.55, 615.73 0" stroke="#1e1e1e" stroke-width="2" fill="none"/></g></g><mask/><g stroke-linecap="round"><g transform="translate(317.865234875 541.3750291383406) rotate(0 0 -255.75784325)"><path d="M0 0 C0 -85.25, 0 -426.26, 0 -511.52 M0 0 C0 -85.25, 0 -426.26, 0 -511.52" stroke="#1e1e1e" stroke-width="2" fill="none"/></g><g transform="translate(317.865234875 541.3750291383406) rotate(0 0 -255.75784325)"><path d="M8.55 -488.02 C6.79 -492.85, 5.04 -497.68, 0 -511.52 M8.55 -488.02 C5.5 -496.41, 2.45 -504.79, 0 -511.52" stroke="#1e1e1e" stroke-width="2" fill="none"/></g><g transform="translate(317.865234875 541.3750291383406) rotate(0 0 -255.75784325)"><path d="M-8.55 -488.02 C-6.79 -492.85, -5.04 -497.68, 0 -511.52 M-8.55 -488.02 C-5.5 -496.41, -2.45 -504.79, 0 -511.52" stroke="#1e1e1e" stroke-width="2" fill="none"/></g></g><mask/><g stroke-linecap="round"><g transform="translate(317.865235 285.61718625) rotate(0 56.865234375 0)"><path d="M0 0 C18.96 0, 94.78 0, 113.73 0 M0 0 C18.96 0, 94.78 0, 113.73 0" stroke="#e03131" stroke-width="4" fill="none"/></g><g transform="translate(317.865235 285.61718625) rotate(0 56.865234375 0)"><path d="M90.24 8.55 C97.92 5.76, 105.59 2.96, 113.73 0 M90.24 8.55 C99.05 5.34, 107.86 2.14, 113.73 0" stroke="#e03131" stroke-width="4" fill="none"/></g><g transform="translate(317.865235 285.61718625) rotate(0 56.865234375 0)"><path d="M90.24 -8.55 C97.92 -5.76, 105.59 -2.96, 113.73 0 M90.24 -8.55 C99.05 -5.34, 107.86 -2.14, 113.73 0" stroke="#e03131" stroke-width="4" fill="none"/></g></g><mask/><g stroke-linecap="round"><g transform="translate(317.8652345703125 285.61718603515624) rotate(0 0 -23.884796142578125)"><path d="M0 0 C0 -7.96, 0 -39.81, 0 -47.77 M0 0 C0 -7.96, 0 -39.81, 0 -47.77" stroke="#e03131" stroke-width="4" fill="none"/></g><g transform="translate(317.8652345703125 285.61718603515624) rotate(0 0 -23.884796142578125)"><path d="M8.17 -25.33 C6.44 -30.07, 4.71 -34.82, 0 -47.77 M8.17 -25.33 C5.83 -31.76, 3.48 -38.2, 0 -47.77" stroke="#e03131" stroke-width="4" fill="none"/></g><g transform="translate(317.8652345703125 285.61718603515624) rotate(0 0 -23.884796142578125)"><path d="M-8.17 -25.33 C-6.44 -30.07, -4.71 -34.82, 0 -47.77 M-8.17 -25.33 C-5.83 -31.76, -3.48 -38.2, 0 -47.77" stroke="#e03131" stroke-width="4" fill="none"/></g></g><mask/><g transform="translate(432.40625 324.8046875) rotate(0 3.81640625 -3.44921875)" stroke="none"><path fill="#e03131" d="M -0.85,-0.44 Q -0.85,-0.44 -0.29,-1.43 0.26,-2.42 0.85,-3.31 1.43,-4.20 1.86,-5.01 2.29,-5.81 2.83,-6.71 3.36,-7.61 3.78,-8.36 4.20,-9.10 4.71,-10.24 5.21,-11.38 5.53,-12.31 5.86,-13.24 6.07,-13.99 6.28,-14.74 6.33,-15.86 6.37,-16.98 6.36,-17.58 6.35,-18.19 6.36,-19.01 6.37,-19.82 6.35,-20.50 6.34,-21.17 6.20,-22.08 6.06,-22.98 6.40,-22.56 6.73,-22.14 6.09,-21.13 5.45,-20.12 5.31,-19.06 5.18,-18.00 5.02,-17.24 4.87,-16.47 4.63,-15.21 4.39,-13.95 4.27,-12.97 4.16,-12.00 4.12,-11.15 4.09,-10.29 3.97,-9.41 3.84,-8.53 3.81,-7.78 3.77,-7.02 3.62,-6.09 3.47,-5.15 3.28,-4.19 3.10,-3.24 2.92,-2.38 2.74,-1.51 2.66,-0.65 2.59,0.20 2.46,0.98 2.34,1.76 2.18,2.54 2.03,3.31 1.82,4.28 1.61,5.25 1.57,5.87 1.53,6.49 1.52,7.18 1.51,7.86 1.40,8.58 1.29,9.31 1.29,10.17 1.28,11.03 1.31,11.92 1.34,12.81 1.37,13.66 1.41,14.51 1.41,15.13 1.40,15.75 1.97,15.03 2.54,14.30 2.94,13.88 3.33,13.45 3.79,12.77 4.25,12.09 4.72,11.46 5.19,10.82 5.58,10.25 5.97,9.69 6.09,8.85 6.21,8.01 6.09,6.88 5.97,5.76 5.93,4.73 5.89,3.71 4.02,3.23 2.16,2.74 1.95,2.63 1.74,2.52 1.58,2.35 1.42,2.17 1.32,1.96 1.22,1.74 1.20,1.51 1.17,1.28 1.23,1.04 1.28,0.81 1.40,0.61 1.52,0.41 1.71,0.26 1.89,0.11 2.11,0.02 2.33,-0.05 2.56,-0.07 2.80,-0.08 3.02,-0.01 3.25,0.04 3.45,0.17 3.64,0.31 3.78,0.50 3.92,0.69 4.00,0.91 4.07,1.13 4.07,1.37 4.07,1.61 3.99,1.83 3.92,2.05 3.77,2.24 3.63,2.43 3.43,2.56 3.24,2.69 3.01,2.75 2.78,2.81 2.55,2.80 2.31,2.79 2.09,2.70 1.87,2.61 1.69,2.45 1.51,2.30 1.39,2.10 1.27,1.89 1.22,1.66 1.17,1.43 1.20,1.20 1.23,0.96 1.33,0.75 1.43,0.54 1.59,0.37 1.76,0.20 1.96,0.09 2.17,-0.01 2.41,-0.05 2.64,-0.09 2.87,-0.05 3.11,-0.01 3.11,-0.01 3.11,-0.01 4.99,0.68 6.87,1.39 7.47,1.81 8.08,2.23 8.36,2.92 8.64,3.60 8.64,4.61 8.64,5.61 8.66,6.17 8.69,6.72 8.76,7.49 8.83,8.26 8.73,9.14 8.62,10.02 8.37,10.58 8.12,11.14 7.71,11.74 7.31,12.35 6.93,12.88 6.55,13.42 6.03,14.43 5.51,15.45 5.14,15.86 4.76,16.27 4.21,16.86 3.67,17.45 3.15,17.77 2.63,18.09 2.12,18.27 1.62,18.45 0.90,18.41 0.18,18.37 -0.40,17.86 -0.98,17.36 -1.17,16.56 -1.36,15.75 -1.34,14.72 -1.32,13.68 -1.28,12.72 -1.24,11.75 -1.15,10.86 -1.06,9.97 -0.97,9.43 -0.89,8.89 -0.75,8.33 -0.61,7.76 -0.56,7.01 -0.51,6.25 -0.39,5.58 -0.28,4.91 -0.13,3.88 0.00,2.86 0.18,2.12 0.36,1.38 0.52,0.71 0.67,0.04 0.75,-0.93 0.82,-1.91 1.00,-2.75 1.17,-3.58 1.31,-4.51 1.46,-5.44 1.57,-6.30 1.68,-7.16 1.74,-8.00 1.81,-8.83 1.93,-9.60 2.04,-10.36 2.07,-11.25 2.09,-12.15 2.12,-13.19 2.15,-14.23 2.24,-15.59 2.33,-16.95 2.45,-17.62 2.57,-18.29 2.66,-19.00 2.74,-19.70 2.98,-20.60 3.22,-21.50 3.60,-22.10 3.98,-22.70 4.48,-23.44 4.98,-24.17 6.19,-24.50 7.39,-24.83 7.93,-24.14 8.46,-23.44 8.51,-22.30 8.57,-21.16 8.54,-20.48 8.52,-19.80 8.51,-18.96 8.51,-18.13 8.46,-17.49 8.41,-16.84 8.32,-16.11 8.24,-15.37 8.08,-14.79 7.91,-14.21 7.63,-13.47 7.35,-12.73 7.02,-11.75 6.69,-10.76 6.18,-9.49 5.67,-8.22 5.22,-7.52 4.77,-6.82 4.27,-5.91 3.78,-4.99 3.32,-4.15 2.85,-3.32 2.34,-2.46 1.83,-1.60 1.34,-0.57 0.85,0.44 0.79,0.54 0.72,0.63 0.63,0.71 0.55,0.79 0.44,0.84 0.34,0.90 0.23,0.93 0.11,0.95 0.00,0.95 -0.11,0.95 -0.22,0.93 -0.34,0.90 -0.44,0.85 -0.54,0.79 -0.63,0.71 -0.72,0.64 -0.78,0.54 -0.85,0.45 -0.89,0.34 -0.93,0.23 -0.95,0.11 -0.96,0.00 -0.95,-0.11 -0.93,-0.22 -0.89,-0.33 -0.85,-0.44 -0.85,-0.44 L -0.85,-0.44 Z"/></g><g transform="translate(273.42578125 240.9296875) rotate(0 -0.986328125 3.947265625)" stroke="none"><path fill="#e03131" d="M -0.88,0.79 Q -0.88,0.79 -1.60,-0.10 -2.33,-1.01 -2.94,-1.40 -3.55,-1.78 -4.15,-1.91 -4.75,-2.03 -5.52,-2.11 -6.29,-2.18 -6.84,-2.19 -7.40,-2.19 -8.35,-1.92 -9.29,-1.64 -9.94,-1.22 -10.58,-0.81 -11.21,-0.09 -11.83,0.62 -11.90,1.17 -11.97,1.72 -12.11,2.30 -12.26,2.87 -12.34,3.62 -12.43,4.37 -12.45,4.95 -12.46,5.54 -12.47,6.11 -12.47,6.68 -12.47,7.24 -12.46,7.81 -12.30,8.79 -12.13,9.77 -11.68,10.44 -11.23,11.11 -10.71,11.66 -10.19,12.22 -9.39,12.35 -8.59,12.47 -8.06,12.33 -7.52,12.19 -6.93,11.54 -6.33,10.89 -5.91,10.44 -5.50,9.99 -4.96,9.03 -4.43,8.07 -4.22,7.52 -4.02,6.97 -3.79,6.22 -3.56,5.46 -3.34,4.30 -3.12,3.13 -3.07,2.26 -3.03,1.39 -3.02,0.86 -3.02,0.32 -3.02,-0.22 -3.01,-0.78 -3.03,-1.70 -3.05,-2.62 -3.06,-3.55 -3.08,-4.48 -3.09,-5.07 -3.11,-5.65 -3.08,-5.83 -3.06,-6.01 -3.00,-6.18 -2.93,-6.35 -2.83,-6.50 -2.73,-6.65 -2.59,-6.77 -2.45,-6.90 -2.29,-6.98 -2.13,-7.06 -1.95,-7.11 -1.78,-7.15 -1.60,-7.15 -1.41,-7.15 -1.24,-7.11 -1.06,-7.06 -0.90,-6.98 -0.74,-6.89 -0.60,-6.77 -0.47,-6.65 -0.36,-6.50 -0.26,-6.35 -0.20,-6.18 -0.13,-6.01 -0.11,-5.83 -0.09,-5.65 -0.08,-4.86 -0.07,-4.07 0.14,-3.56 0.36,-3.06 0.54,-2.53 0.72,-2.00 1.07,-1.23 1.41,-0.45 1.78,0.31 2.15,1.07 2.55,1.72 2.95,2.36 3.26,3.00 3.58,3.65 3.92,4.56 4.26,5.47 4.48,6.18 4.70,6.88 5.00,7.85 5.30,8.83 5.63,9.32 5.97,9.80 6.65,9.73 7.33,9.66 7.99,9.27 8.66,8.88 9.77,7.86 10.87,6.84 11.08,6.71 11.28,6.58 11.52,6.53 11.75,6.47 11.99,6.49 12.24,6.52 12.46,6.62 12.68,6.71 12.86,6.88 13.03,7.04 13.15,7.25 13.27,7.46 13.31,7.70 13.35,7.94 13.32,8.18 13.28,8.42 13.17,8.63 13.06,8.85 12.89,9.02 12.72,9.19 12.50,9.29 12.28,9.40 12.04,9.43 11.80,9.46 11.56,9.41 11.33,9.36 11.12,9.24 10.91,9.12 10.75,8.94 10.59,8.75 10.50,8.53 10.40,8.31 10.39,8.07 10.37,7.83 10.43,7.59 10.49,7.36 10.62,7.15 10.76,6.95 10.95,6.80 11.14,6.65 11.37,6.57 11.59,6.49 11.84,6.49 12.08,6.48 12.31,6.56 12.54,6.63 12.73,6.78 12.93,6.92 13.07,7.12 13.21,7.32 13.27,7.55 13.34,7.78 13.33,8.02 13.32,8.26 13.24,8.49 13.15,8.71 13.00,8.90 12.84,9.09 12.84,9.09 12.84,9.09 11.62,10.17 10.39,11.25 9.81,11.64 9.24,12.02 8.69,12.23 8.15,12.44 7.22,12.64 6.29,12.84 5.60,12.64 4.91,12.45 4.39,12.08 3.86,11.71 3.22,10.84 2.57,9.98 2.49,9.36 2.42,8.73 2.08,7.70 1.75,6.67 1.09,5.46 0.43,4.25 -0.12,3.33 -0.68,2.42 -1.05,1.62 -1.42,0.82 -1.81,-0.08 -2.20,-0.99 -2.53,-1.93 -2.87,-2.86 -3.00,-3.45 -3.12,-4.04 -3.11,-4.85 -3.11,-5.65 -3.08,-5.83 -3.06,-6.01 -3.00,-6.18 -2.93,-6.35 -2.83,-6.50 -2.73,-6.65 -2.59,-6.77 -2.45,-6.90 -2.29,-6.98 -2.13,-7.06 -1.95,-7.11 -1.78,-7.15 -1.60,-7.15 -1.41,-7.15 -1.24,-7.11 -1.06,-7.06 -0.90,-6.98 -0.74,-6.90 -0.60,-6.77 -0.47,-6.65 -0.36,-6.50 -0.26,-6.35 -0.20,-6.18 -0.13,-6.01 -0.11,-5.83 -0.09,-5.65 -0.10,-5.07 -0.11,-4.48 -0.13,-3.55 -0.15,-2.61 -0.17,-1.68 -0.19,-0.75 -0.20,-0.18 -0.21,0.38 -0.23,0.95 -0.25,1.53 -0.29,2.11 -0.33,2.70 -0.42,3.24 -0.51,3.79 -0.65,4.31 -0.79,4.83 -0.90,5.47 -1.01,6.10 -1.21,7.02 -1.40,7.93 -1.69,8.73 -1.98,9.53 -2.28,10.06 -2.59,10.59 -2.97,11.26 -3.35,11.93 -3.73,12.35 -4.11,12.78 -4.64,13.39 -5.16,14.00 -5.88,14.51 -6.61,15.03 -7.19,15.18 -7.77,15.33 -8.42,15.35 -9.06,15.37 -9.73,15.24 -10.39,15.12 -11.59,14.45 -12.79,13.78 -13.15,13.37 -13.51,12.97 -14.07,12.07 -14.63,11.17 -14.79,10.19 -14.96,9.22 -15.07,8.51 -15.19,7.80 -15.17,7.21 -15.16,6.63 -15.14,6.03 -15.12,5.43 -15.09,4.81 -15.06,4.19 -14.89,2.72 -14.73,1.25 -14.61,0.72 -14.49,0.19 -14.22,-0.39 -13.95,-0.99 -13.48,-1.56 -13.01,-2.13 -12.56,-2.52 -12.11,-2.90 -11.55,-3.26 -10.99,-3.62 -10.46,-3.79 -9.93,-3.97 -9.30,-4.11 -8.67,-4.26 -7.97,-4.34 -7.28,-4.42 -6.68,-4.35 -6.08,-4.28 -5.14,-4.19 -4.20,-4.09 -3.32,-3.82 -2.44,-3.54 -1.61,-2.99 -0.78,-2.43 0.05,-1.61 0.88,-0.79 0.96,-0.68 1.05,-0.56 1.10,-0.42 1.15,-0.29 1.17,-0.15 1.19,-0.01 1.17,0.13 1.16,0.27 1.11,0.40 1.06,0.54 0.98,0.66 0.89,0.78 0.79,0.87 0.68,0.97 0.55,1.04 0.43,1.11 0.29,1.14 0.15,1.18 0.01,1.18 -0.13,1.18 -0.27,1.15 -0.41,1.11 -0.54,1.05 -0.66,0.98 -0.77,0.89 -0.88,0.79 -0.88,0.79 L -0.88,0.79 Z"/></g><g transform="translate(254.41015625 230.61328125) rotate(0 6.07232666015625 -0.861328125)" stroke="none"><path fill="#e03131" d="M -0.18,-1.16 Q -0.18,-1.16 0.83,-1.27 1.84,-1.37 2.68,-1.53 3.52,-1.70 4.37,-1.79 5.22,-1.88 5.95,-2.03 6.67,-2.17 7.60,-2.23 8.53,-2.29 10.26,-2.56 12.00,-2.83 12.18,-2.82 12.36,-2.82 12.53,-2.75 12.70,-2.69 12.84,-2.57 12.98,-2.46 13.08,-2.30 13.18,-2.15 13.22,-1.97 13.26,-1.80 13.24,-1.62 13.23,-1.44 13.15,-1.27 13.08,-1.10 12.96,-0.97 12.83,-0.84 12.67,-0.75 12.52,-0.66 12.34,-0.63 12.16,-0.60 11.98,-0.62 11.80,-0.65 11.64,-0.73 11.48,-0.81 11.35,-0.94 11.22,-1.07 11.14,-1.24 11.06,-1.40 11.04,-1.58 11.02,-1.76 11.05,-1.94 11.09,-2.12 11.18,-2.27 11.27,-2.43 11.41,-2.55 11.54,-2.67 11.71,-2.74 11.88,-2.81 12.06,-2.82 12.24,-2.84 12.42,-2.79 12.59,-2.74 12.75,-2.64 12.90,-2.55 13.01,-2.40 13.12,-2.26 13.18,-2.09 13.24,-1.92 13.25,-1.74 13.25,-1.55 13.20,-1.38 13.14,-1.21 13.03,-1.06 12.93,-0.92 12.78,-0.81 12.63,-0.71 12.45,-0.66 12.28,-0.60 12.28,-0.60 12.28,-0.60 10.48,-0.40 8.68,-0.19 7.87,-0.12 7.06,-0.06 6.25,0.07 5.43,0.22 4.69,0.28 3.94,0.34 3.06,0.54 2.18,0.73 1.18,0.95 0.18,1.16 0.04,1.17 -0.09,1.17 -0.23,1.14 -0.37,1.11 -0.50,1.05 -0.63,0.99 -0.74,0.90 -0.85,0.81 -0.94,0.70 -1.02,0.58 -1.08,0.45 -1.13,0.32 -1.15,0.18 -1.18,0.04 -1.16,-0.09 -1.15,-0.24 -1.11,-0.37 -1.06,-0.51 -0.98,-0.63 -0.91,-0.75 -0.80,-0.84 -0.70,-0.94 -0.58,-1.01 -0.45,-1.08 -0.32,-1.12 -0.18,-1.16 -0.18,-1.16 L -0.18,-1.16 Z"/></g><g transform="translate(429.94921875 295.046875) rotate(0 4.7265625 0.193359375)" stroke="none"><path fill="#e03131" d="M 0.13,-1.22 Q 0.13,-1.22 1.14,-1.04 2.15,-0.87 2.88,-0.83 3.61,-0.79 4.34,-0.78 5.08,-0.77 7.26,-0.81 9.45,-0.85 9.65,-0.82 9.85,-0.78 10.02,-0.69 10.20,-0.59 10.34,-0.45 10.48,-0.30 10.56,-0.12 10.64,0.05 10.66,0.25 10.69,0.45 10.64,0.65 10.60,0.84 10.50,1.01 10.39,1.19 10.24,1.32 10.09,1.45 9.90,1.52 9.71,1.59 9.51,1.60 9.31,1.61 9.12,1.56 8.93,1.51 8.76,1.39 8.59,1.28 8.47,1.12 8.35,0.96 8.29,0.77 8.22,0.58 8.22,0.38 8.22,0.18 8.29,-0.00 8.35,-0.19 8.48,-0.35 8.60,-0.51 8.76,-0.62 8.93,-0.73 9.12,-0.79 9.32,-0.84 9.52,-0.83 9.72,-0.82 9.90,-0.74 10.09,-0.67 10.24,-0.54 10.39,-0.41 10.50,-0.24 10.60,-0.07 10.64,0.12 10.69,0.32 10.66,0.52 10.64,0.72 10.56,0.90 10.47,1.08 10.33,1.22 10.20,1.37 10.02,1.46 9.84,1.56 9.64,1.59 9.45,1.62 9.45,1.62 9.45,1.62 7.77,1.59 6.10,1.55 5.56,1.52 5.01,1.48 4.24,1.46 3.47,1.43 2.69,1.37 1.91,1.32 0.88,1.27 -0.13,1.22 -0.27,1.18 -0.42,1.15 -0.55,1.08 -0.68,1.02 -0.79,0.92 -0.91,0.82 -0.99,0.70 -1.08,0.58 -1.13,0.44 -1.19,0.30 -1.21,0.16 -1.23,0.01 -1.21,-0.13 -1.19,-0.28 -1.14,-0.41 -1.09,-0.55 -1.01,-0.68 -0.93,-0.80 -0.82,-0.90 -0.71,-1.00 -0.58,-1.07 -0.44,-1.14 -0.30,-1.18 -0.16,-1.21 -0.01,-1.22 0.13,-1.22 0.13,-1.22 L 0.13,-1.22 Z"/></g><g transform="translate(637.76953125 303.6796875) rotate(0 -4.40234375 8.23046875)" stroke="none"><path fill="#1e1e1e" d="M 1.01,0.46 Q 1.01,0.46 0.47,1.48 -0.05,2.49 -0.49,3.29 -0.92,4.10 -1.31,4.87 -1.70,5.63 -2.08,6.41 -2.46,7.18 -2.84,7.96 -3.22,8.74 -3.59,9.44 -3.97,10.14 -4.34,10.79 -4.71,11.43 -4.93,11.91 -5.16,12.40 -5.49,12.97 -5.81,13.54 -6.75,15.31 -7.69,17.07 -7.82,17.24 -7.95,17.40 -8.12,17.51 -8.29,17.62 -8.49,17.67 -8.69,17.72 -8.90,17.70 -9.10,17.69 -9.29,17.61 -9.48,17.53 -9.63,17.39 -9.78,17.25 -9.89,17.08 -9.99,16.90 -10.03,16.70 -10.07,16.50 -10.04,16.29 -10.01,16.09 -9.92,15.90 -9.83,15.72 -9.69,15.58 -9.54,15.43 -9.36,15.34 -9.18,15.25 -8.97,15.22 -8.77,15.19 -8.57,15.23 -8.37,15.27 -8.19,15.37 -8.01,15.47 -7.87,15.62 -7.73,15.77 -7.65,15.96 -7.57,16.15 -7.55,16.35 -7.54,16.55 -7.59,16.75 -7.63,16.95 -7.74,17.13 -7.85,17.30 -8.01,17.43 -8.17,17.56 -8.36,17.63 -8.56,17.70 -8.76,17.71 -8.97,17.71 -9.16,17.65 -9.36,17.59 -9.53,17.47 -9.69,17.35 -9.81,17.19 -9.93,17.02 -9.99,16.83 -10.05,16.63 -10.05,16.43 -10.04,16.22 -9.97,16.03 -9.90,15.84 -9.90,15.84 -9.90,15.84 -9.14,14.55 -8.37,13.27 -8.09,12.80 -7.80,12.33 -7.47,11.82 -7.14,11.31 -6.83,10.82 -6.52,10.33 -6.14,9.73 -5.75,9.14 -5.37,8.50 -5.00,7.87 -4.62,7.09 -4.24,6.31 -3.85,5.53 -3.46,4.74 -3.06,3.95 -2.66,3.16 -2.26,2.41 -1.86,1.66 -1.43,0.59 -1.01,-0.46 -0.94,-0.58 -0.86,-0.69 -0.77,-0.78 -0.67,-0.88 -0.56,-0.95 -0.44,-1.01 -0.31,-1.05 -0.19,-1.09 -0.05,-1.10 0.07,-1.11 0.20,-1.08 0.34,-1.05 0.46,-1.00 0.58,-0.94 0.68,-0.86 0.79,-0.77 0.87,-0.67 0.95,-0.56 1.01,-0.44 1.06,-0.32 1.08,-0.18 1.11,-0.05 1.10,0.07 1.09,0.21 1.05,0.33 1.01,0.46 1.01,0.46 L 1.01,0.46 Z"/></g><g transform="translate(625.5703125 305.01953125) rotate(0 7.544921875 7.53515625)" stroke="none"><path fill="#1e1e1e" d="M 0.61,-0.82 Q 0.61,-0.82 1.94,0.23 3.28,1.29 4.29,2.22 5.30,3.15 6.07,4.03 6.84,4.90 7.56,5.57 8.28,6.24 8.96,7.01 9.63,7.78 10.17,8.43 10.70,9.08 11.14,9.54 11.58,9.99 11.94,10.45 12.29,10.91 12.72,11.36 13.15,11.82 14.51,13.04 15.87,14.25 15.98,14.40 16.09,14.55 16.15,14.72 16.20,14.90 16.20,15.08 16.20,15.26 16.14,15.44 16.08,15.61 15.97,15.75 15.85,15.90 15.70,16.00 15.55,16.10 15.37,16.15 15.19,16.19 15.01,16.18 14.83,16.17 14.66,16.10 14.49,16.03 14.35,15.91 14.21,15.79 14.12,15.63 14.03,15.47 13.99,15.29 13.95,15.11 13.98,14.93 14.00,14.75 14.08,14.58 14.16,14.42 14.28,14.29 14.41,14.15 14.58,14.07 14.74,13.99 14.92,13.96 15.10,13.93 15.28,13.97 15.46,14.00 15.62,14.09 15.78,14.17 15.91,14.31 16.03,14.44 16.11,14.61 16.18,14.78 16.20,14.96 16.21,15.14 16.17,15.32 16.13,15.50 16.03,15.65 15.94,15.81 15.80,15.93 15.66,16.04 15.48,16.11 15.31,16.17 15.13,16.18 14.95,16.19 14.77,16.14 14.60,16.09 14.44,15.98 14.29,15.88 14.29,15.88 14.29,15.88 12.91,14.55 11.52,13.21 10.83,12.21 10.15,11.20 9.74,10.66 9.34,10.11 8.89,9.46 8.44,8.81 7.83,8.11 7.22,7.40 6.44,6.69 5.65,5.99 4.91,5.22 4.17,4.45 3.17,3.61 2.16,2.78 0.77,1.80 -0.61,0.82 -0.70,0.73 -0.79,0.65 -0.86,0.54 -0.93,0.44 -0.97,0.32 -1.01,0.20 -1.02,0.08 -1.03,-0.04 -1.01,-0.16 -0.99,-0.28 -0.94,-0.40 -0.89,-0.51 -0.81,-0.61 -0.74,-0.71 -0.64,-0.79 -0.55,-0.87 -0.43,-0.92 -0.32,-0.97 -0.20,-1.00 -0.08,-1.02 0.04,-1.02 0.16,-1.01 0.28,-0.98 0.40,-0.94 0.51,-0.88 0.61,-0.82 0.61,-0.82 L 0.61,-0.82 Z"/></g><g transform="translate(331.09765625 26.8828125) rotate(0 6.10162353515625 11.298843383789062)" stroke="none"><path fill="#1e1e1e" d="M 1.10,-0.62 Q 1.10,-0.62 1.45,0.00 1.81,0.64 2.10,1.30 2.40,1.96 2.80,2.64 3.20,3.31 3.76,4.03 4.32,4.75 5.20,5.46 6.08,6.18 6.65,6.29 7.23,6.40 7.60,5.90 7.97,5.41 7.99,4.85 8.01,4.30 8.10,3.29 8.20,2.28 8.14,1.60 8.08,0.92 8.03,0.39 7.98,-0.14 7.91,-0.66 7.84,-1.19 7.82,-1.38 7.79,-1.56 7.82,-1.75 7.84,-1.93 7.91,-2.11 7.98,-2.28 8.09,-2.43 8.19,-2.59 8.34,-2.71 8.48,-2.83 8.64,-2.92 8.81,-3.00 8.99,-3.04 9.17,-3.09 9.36,-3.09 9.55,-3.08 9.73,-3.04 9.91,-2.99 10.07,-2.90 10.24,-2.81 10.38,-2.69 10.52,-2.56 10.62,-2.41 10.73,-2.25 10.79,-2.08 10.86,-1.90 11.16,-1.37 11.46,-0.83 11.61,-0.27 11.76,0.28 12.09,1.37 12.43,2.46 12.66,3.34 12.90,4.22 12.90,5.04 12.91,5.87 13.00,6.41 13.10,6.96 13.15,7.63 13.21,8.31 13.38,9.43 13.56,10.54 13.61,11.52 13.66,12.50 13.66,13.14 13.65,13.79 13.63,15.05 13.61,16.32 13.60,16.98 13.60,17.63 13.62,18.61 13.64,19.58 13.53,20.73 13.41,21.88 13.07,22.54 12.73,23.19 12.40,23.69 12.06,24.19 10.97,24.95 9.89,25.72 9.13,25.81 8.37,25.90 7.65,25.55 6.93,25.20 6.59,24.52 6.26,23.83 6.18,23.25 6.11,22.67 5.73,21.80 5.36,20.93 5.24,20.24 5.12,19.56 5.05,18.61 4.98,17.67 5.10,16.91 5.22,16.15 5.41,15.13 5.59,14.12 5.91,13.48 6.23,12.84 6.48,12.05 6.73,11.26 7.56,9.18 8.38,7.11 8.51,6.90 8.65,6.69 8.84,6.53 9.03,6.37 9.26,6.29 9.50,6.20 9.74,6.19 9.99,6.18 10.23,6.25 10.47,6.32 10.67,6.46 10.88,6.61 11.02,6.81 11.17,7.01 11.25,7.25 11.32,7.48 11.32,7.73 11.31,7.98 11.23,8.22 11.15,8.45 10.99,8.65 10.84,8.84 10.63,8.98 10.42,9.11 10.18,9.18 9.94,9.24 9.69,9.22 9.44,9.20 9.21,9.11 8.98,9.01 8.80,8.85 8.61,8.68 8.48,8.46 8.36,8.25 8.31,8.01 8.26,7.76 8.29,7.51 8.32,7.27 8.43,7.04 8.54,6.82 8.72,6.64 8.89,6.46 9.11,6.35 9.34,6.24 9.58,6.20 9.83,6.17 10.07,6.21 10.32,6.26 10.54,6.38 10.75,6.50 10.92,6.68 11.09,6.87 11.19,7.09 11.29,7.32 11.31,7.57 11.33,7.82 11.28,8.06 11.22,8.30 11.22,8.30 11.22,8.30 10.46,10.12 9.70,11.93 9.56,12.46 9.43,12.99 9.18,13.61 8.94,14.24 8.63,14.90 8.32,15.56 8.19,16.56 8.06,17.56 8.09,18.33 8.12,19.10 8.35,19.96 8.58,20.83 8.57,21.99 8.56,23.14 9.09,22.85 9.62,22.55 10.09,21.90 10.56,21.24 10.66,20.41 10.76,19.58 10.78,18.61 10.80,17.64 10.79,16.98 10.78,16.32 10.76,15.07 10.73,13.81 10.72,12.77 10.70,11.73 10.65,10.74 10.59,9.75 10.45,9.16 10.31,8.56 10.26,8.03 10.21,7.49 10.07,6.74 9.92,5.99 9.85,5.07 9.77,4.16 9.53,3.28 9.29,2.40 8.98,1.66 8.67,0.93 8.50,0.38 8.32,-0.16 8.08,-0.67 7.84,-1.19 7.82,-1.37 7.79,-1.56 7.82,-1.75 7.84,-1.93 7.91,-2.11 7.98,-2.28 8.09,-2.43 8.19,-2.59 8.34,-2.71 8.48,-2.83 8.64,-2.92 8.81,-3.00 8.99,-3.04 9.17,-3.09 9.36,-3.09 9.55,-3.08 9.73,-3.04 9.91,-2.99 10.07,-2.90 10.24,-2.81 10.38,-2.69 10.52,-2.56 10.62,-2.41 10.73,-2.25 10.79,-2.08 10.86,-1.90 10.80,-1.72 10.75,-1.53 10.93,-0.57 11.10,0.39 11.20,1.09 11.30,1.80 11.25,2.34 11.19,2.88 11.10,3.63 11.01,4.38 11.00,5.02 10.99,5.67 10.93,6.23 10.86,6.79 10.56,7.44 10.26,8.09 9.83,8.43 9.39,8.77 8.60,9.02 7.80,9.28 6.76,9.11 5.72,8.94 5.12,8.67 4.52,8.40 3.86,7.94 3.20,7.47 2.40,6.56 1.60,5.64 1.04,4.80 0.47,3.95 0.27,3.46 0.06,2.97 -0.15,2.42 -0.38,1.88 -0.74,1.25 -1.10,0.62 -1.16,0.48 -1.22,0.34 -1.24,0.19 -1.26,0.04 -1.25,-0.11 -1.24,-0.26 -1.19,-0.40 -1.14,-0.55 -1.06,-0.68 -0.97,-0.81 -0.86,-0.91 -0.75,-1.02 -0.62,-1.09 -0.48,-1.17 -0.34,-1.21 -0.19,-1.25 -0.04,-1.25 0.11,-1.26 0.26,-1.23 0.41,-1.20 0.54,-1.13 0.68,-1.06 0.80,-0.97 0.92,-0.87 1.01,-0.74 1.10,-0.62 1.10,-0.62 L 1.10,-0.62 Z"/></g><g transform="translate(319.328125 283.46875) rotate(0 30.650390625 -73.322265625)" stroke="none"><path fill="#1971c2" d="M -0.72,0.29 Q -0.72,0.29 -1.21,-0.99 -1.71,-2.27 -2.14,-3.74 -2.57,-5.21 -2.87,-6.76 -3.16,-8.30 -3.28,-9.88 -3.40,-11.45 -3.45,-13.24 -3.50,-15.03 -3.52,-16.80 -3.54,-18.57 -3.44,-20.68 -3.34,-22.80 -3.18,-24.92 -3.03,-27.05 -2.86,-29.30 -2.68,-31.55 -2.18,-35.32 -1.67,-39.10 -1.13,-42.05 -0.59,-45.01 -0.03,-47.61 0.52,-50.21 1.08,-52.66 1.64,-55.11 2.20,-57.50 2.76,-59.89 3.33,-62.14 3.89,-64.39 4.57,-66.59 5.24,-68.79 5.96,-71.07 6.68,-73.34 7.53,-75.67 8.38,-77.99 9.16,-80.31 9.95,-82.63 10.72,-84.96 11.49,-87.29 12.79,-90.65 14.10,-94.01 15.19,-96.56 16.29,-99.11 17.19,-101.20 18.08,-103.29 19.12,-105.21 20.17,-107.14 21.48,-109.19 22.79,-111.25 24.22,-113.36 25.64,-115.46 27.11,-117.59 28.57,-119.72 30.18,-121.75 31.79,-123.79 33.45,-125.68 35.11,-127.56 36.80,-129.26 38.49,-130.97 40.19,-132.38 41.90,-133.79 44.26,-135.41 46.62,-137.02 48.37,-138.16 50.13,-139.29 51.30,-140.10 52.46,-140.91 53.51,-141.59 54.56,-142.28 55.57,-142.81 56.57,-143.34 57.28,-143.81 57.99,-144.28 58.50,-144.63 59.01,-144.99 59.51,-145.36 60.02,-145.74 60.47,-146.05 60.91,-146.35 62.39,-147.02 63.86,-147.68 64.03,-147.71 64.21,-147.73 64.38,-147.70 64.56,-147.67 64.71,-147.59 64.87,-147.50 64.99,-147.37 65.11,-147.24 65.18,-147.08 65.26,-146.92 65.27,-146.74 65.29,-146.57 65.25,-146.40 65.21,-146.22 65.12,-146.07 65.03,-145.92 64.89,-145.81 64.75,-145.70 64.59,-145.63 64.42,-145.57 64.24,-145.56 64.07,-145.55 63.90,-145.60 63.73,-145.65 63.58,-145.75 63.44,-145.85 63.33,-145.99 63.22,-146.14 63.17,-146.31 63.12,-146.47 63.12,-146.65 63.12,-146.83 63.18,-147.00 63.24,-147.16 63.34,-147.30 63.45,-147.44 63.60,-147.54 63.75,-147.64 63.92,-147.68 64.09,-147.73 64.27,-147.72 64.45,-147.71 64.61,-147.64 64.77,-147.57 64.91,-147.46 65.04,-147.34 65.13,-147.19 65.22,-147.03 65.26,-146.86 65.29,-146.69 65.27,-146.51 65.25,-146.33 65.17,-146.17 65.10,-146.01 64.97,-145.89 64.85,-145.76 64.69,-145.68 64.54,-145.60 64.54,-145.60 64.54,-145.60 62.78,-144.88 61.03,-144.16 60.44,-143.83 59.84,-143.51 59.29,-143.26 58.74,-143.01 57.96,-142.60 57.18,-142.18 56.23,-141.68 55.28,-141.18 54.24,-140.51 53.21,-139.83 52.03,-139.01 50.84,-138.19 49.10,-137.06 47.36,-135.94 45.05,-134.36 42.74,-132.78 41.08,-131.41 39.42,-130.04 37.76,-128.37 36.10,-126.69 34.46,-124.84 32.82,-122.98 31.24,-120.98 29.65,-118.97 28.19,-116.85 26.73,-114.73 25.31,-112.63 23.90,-110.54 22.61,-108.53 21.32,-106.51 20.30,-104.64 19.29,-102.77 18.39,-100.68 17.50,-98.60 16.41,-96.06 15.32,-93.53 14.03,-90.21 12.74,-86.88 11.97,-84.54 11.20,-82.21 10.40,-79.87 9.61,-77.54 8.77,-75.24 7.93,-72.95 7.22,-70.68 6.50,-68.41 5.83,-66.24 5.17,-64.07 4.60,-61.83 4.04,-59.59 3.48,-57.20 2.92,-54.82 2.36,-52.38 1.81,-49.94 1.25,-47.35 0.70,-44.77 0.17,-41.85 -0.36,-38.92 -0.86,-35.19 -1.36,-31.45 -1.53,-29.20 -1.70,-26.96 -1.85,-24.85 -2.00,-22.73 -2.09,-20.66 -2.19,-18.59 -2.16,-16.83 -2.14,-15.07 -2.08,-13.32 -2.02,-11.56 -1.90,-10.07 -1.77,-8.57 -1.48,-7.10 -1.19,-5.63 -0.76,-4.22 -0.32,-2.82 0.19,-1.55 0.72,-0.29 0.74,-0.19 0.77,-0.10 0.77,-0.01 0.77,0.08 0.75,0.17 0.73,0.26 0.69,0.34 0.65,0.43 0.58,0.50 0.52,0.57 0.45,0.63 0.37,0.68 0.28,0.71 0.20,0.75 0.10,0.76 0.01,0.78 -0.07,0.77 -0.17,0.76 -0.26,0.72 -0.35,0.69 -0.42,0.64 -0.50,0.59 -0.57,0.52 -0.63,0.45 -0.68,0.37 -0.72,0.28 -0.72,0.29 L -0.72,0.29 Z"/></g><g transform="translate(321.34765625 286.01953125) rotate(0 49.54296875 -57.220703125)" stroke="none"><path fill="#1971c2" d="M -0.76,-0.14 Q -0.76,-0.14 -0.48,-1.56 -0.19,-2.99 0.14,-4.60 0.49,-6.22 0.96,-8.04 1.44,-9.86 2.08,-11.77 2.73,-13.68 3.55,-15.63 4.37,-17.57 5.26,-19.52 6.15,-21.46 7.07,-23.41 7.99,-25.36 9.03,-27.32 10.08,-29.28 11.93,-32.47 13.78,-35.65 15.33,-38.24 16.87,-40.83 18.29,-43.05 19.70,-45.28 21.06,-47.45 22.41,-49.62 23.75,-51.67 25.08,-53.72 26.41,-55.71 27.73,-57.70 29.06,-59.46 30.39,-61.22 31.94,-62.99 33.49,-64.75 35.01,-66.40 36.53,-68.05 38.16,-69.65 39.78,-71.25 41.55,-72.94 43.32,-74.63 46.15,-76.93 48.97,-79.23 51.24,-81.10 53.51,-82.96 55.56,-84.55 57.62,-86.13 59.56,-87.69 61.51,-89.26 63.30,-90.81 65.09,-92.36 66.83,-93.82 68.57,-95.27 70.39,-96.78 72.21,-98.29 73.96,-99.72 75.70,-101.15 77.31,-102.43 78.92,-103.71 80.37,-104.82 81.81,-105.92 83.07,-106.85 84.34,-107.77 85.97,-108.84 87.60,-109.91 88.61,-110.58 89.61,-111.26 90.35,-111.79 91.08,-112.33 91.74,-112.73 92.40,-113.12 92.95,-113.51 93.50,-113.89 94.11,-114.22 94.72,-114.55 95.26,-114.73 95.80,-114.91 97.40,-115.24 99.00,-115.57 99.19,-115.55 99.37,-115.53 99.53,-115.46 99.70,-115.38 99.84,-115.26 99.97,-115.13 100.06,-114.97 100.15,-114.81 100.18,-114.63 100.21,-114.45 100.19,-114.27 100.16,-114.09 100.07,-113.93 99.99,-113.77 99.86,-113.64 99.73,-113.51 99.56,-113.43 99.40,-113.35 99.22,-113.33 99.04,-113.31 98.86,-113.34 98.68,-113.38 98.52,-113.47 98.36,-113.56 98.24,-113.70 98.12,-113.84 98.05,-114.01 97.98,-114.18 97.97,-114.36 97.95,-114.54 98.00,-114.72 98.05,-114.90 98.15,-115.05 98.25,-115.20 98.39,-115.32 98.54,-115.43 98.71,-115.49 98.88,-115.55 99.06,-115.55 99.25,-115.56 99.42,-115.50 99.60,-115.44 99.74,-115.33 99.89,-115.23 100.00,-115.08 100.10,-114.93 100.15,-114.75 100.20,-114.58 100.20,-114.39 100.19,-114.21 100.12,-114.04 100.06,-113.87 99.94,-113.73 99.83,-113.58 99.67,-113.49 99.51,-113.39 99.34,-113.35 99.16,-113.31 99.16,-113.31 99.16,-113.31 97.35,-113.03 95.54,-112.76 94.99,-112.55 94.44,-112.34 93.79,-112.00 93.15,-111.66 92.52,-111.40 91.89,-111.14 91.12,-110.65 90.34,-110.17 89.33,-109.49 88.32,-108.81 86.72,-107.76 85.11,-106.71 83.86,-105.79 82.61,-104.88 81.17,-103.78 79.74,-102.68 78.14,-101.41 76.54,-100.13 74.79,-98.71 73.05,-97.28 71.23,-95.77 69.41,-94.26 67.68,-92.82 65.95,-91.37 64.14,-89.80 62.33,-88.23 60.37,-86.66 58.42,-85.09 56.38,-83.52 54.34,-81.95 52.07,-80.08 49.80,-78.21 47.01,-75.95 44.23,-73.68 42.47,-72.00 40.70,-70.31 39.10,-68.73 37.49,-67.15 35.98,-65.52 34.48,-63.89 32.96,-62.16 31.44,-60.43 30.13,-58.70 28.83,-56.98 27.51,-54.99 26.19,-53.00 24.86,-50.96 23.53,-48.92 22.17,-46.75 20.82,-44.57 19.41,-42.36 18.01,-40.15 16.47,-37.57 14.93,-34.99 13.09,-31.82 11.26,-28.65 10.23,-26.72 9.20,-24.78 8.29,-22.84 7.38,-20.90 6.50,-18.97 5.62,-17.04 4.83,-15.14 4.04,-13.24 3.42,-11.38 2.80,-9.51 2.35,-7.72 1.90,-5.93 1.58,-4.32 1.27,-2.71 1.01,-1.28 0.76,0.14 0.73,0.23 0.71,0.32 0.66,0.40 0.61,0.48 0.54,0.55 0.47,0.61 0.39,0.66 0.31,0.71 0.22,0.74 0.13,0.76 0.04,0.77 -0.05,0.77 -0.14,0.76 -0.23,0.74 -0.32,0.70 -0.40,0.66 -0.48,0.60 -0.55,0.54 -0.61,0.47 -0.67,0.40 -0.70,0.31 -0.74,0.22 -0.76,0.13 -0.77,0.04 -0.77,-0.05 -0.76,-0.14 -0.76,-0.14 L -0.76,-0.14 Z"/></g><g transform="translate(354.0078125 151.28125) rotate(0 3.22271728515625 3.849609375)" stroke="none"><path fill="#1971c2" d="M 1.14,0.54 Q 1.14,0.54 0.66,1.41 0.19,2.28 -0.08,2.88 -0.36,3.49 -0.55,4.11 -0.75,4.73 -0.81,5.44 -0.87,6.15 -0.39,5.49 0.07,4.82 0.75,4.47 1.43,4.12 1.92,3.85 2.41,3.58 2.90,3.27 3.39,2.96 3.85,2.69 4.32,2.41 4.80,2.16 5.29,1.91 6.45,0.79 7.60,-0.33 7.80,-0.47 7.99,-0.61 8.22,-0.68 8.45,-0.75 8.69,-0.75 8.93,-0.74 9.16,-0.66 9.39,-0.58 9.58,-0.43 9.77,-0.28 9.90,-0.08 10.03,0.11 10.09,0.35 10.15,0.58 10.13,0.82 10.11,1.06 10.02,1.28 9.92,1.50 9.76,1.68 9.60,1.86 9.39,1.98 9.19,2.10 8.95,2.15 8.71,2.20 8.47,2.17 8.23,2.14 8.02,2.03 7.80,1.92 7.63,1.76 7.46,1.59 7.35,1.37 7.24,1.16 7.21,0.92 7.17,0.68 7.22,0.44 7.26,0.20 7.38,-0.00 7.50,-0.21 7.68,-0.37 7.85,-0.53 8.07,-0.63 8.29,-0.72 8.53,-0.74 8.77,-0.77 9.01,-0.71 9.24,-0.65 9.45,-0.52 9.65,-0.39 9.80,-0.21 9.95,-0.02 10.04,0.19 10.12,0.42 10.13,0.66 10.14,0.90 10.07,1.13 10.00,1.36 9.86,1.56 9.72,1.76 9.72,1.76 9.72,1.76 8.14,3.12 6.55,4.48 5.72,4.90 4.88,5.32 4.31,5.69 3.74,6.05 3.25,6.30 2.77,6.56 2.16,6.91 1.56,7.26 0.55,7.78 -0.44,8.30 -1.21,8.40 -1.98,8.49 -2.64,7.95 -3.30,7.41 -3.37,6.66 -3.44,5.91 -3.23,4.94 -3.01,3.97 -2.75,3.22 -2.49,2.47 -2.19,1.88 -1.89,1.28 -1.51,0.36 -1.14,-0.54 -1.06,-0.67 -0.98,-0.80 -0.87,-0.91 -0.76,-1.01 -0.62,-1.09 -0.49,-1.16 -0.34,-1.21 -0.20,-1.25 -0.04,-1.26 0.10,-1.26 0.25,-1.23 0.40,-1.20 0.54,-1.13 0.68,-1.07 0.79,-0.97 0.91,-0.87 1.00,-0.75 1.10,-0.63 1.16,-0.49 1.22,-0.35 1.24,-0.19 1.26,-0.04 1.25,0.10 1.24,0.25 1.19,0.40 1.14,0.54 1.14,0.54 L 1.14,0.54 Z"/></g><g transform="translate(356.640625 150.703125) rotate(0 0.91412353515625 1.80078125)" stroke="none"><path fill="#1971c2" d="M 0.83,-1.02 Q 0.83,-1.02 1.34,-0.60 1.84,-0.19 2.52,0.37 3.19,0.95 3.71,1.43 4.23,1.91 4.42,2.10 4.62,2.29 4.75,2.42 4.88,2.54 4.97,2.70 5.07,2.85 5.12,3.02 5.18,3.19 5.19,3.37 5.20,3.55 5.17,3.73 5.14,3.91 5.07,4.07 5.00,4.24 4.89,4.38 4.78,4.52 4.64,4.64 4.50,4.75 4.33,4.82 4.17,4.90 3.99,4.93 3.81,4.97 3.63,4.96 3.45,4.95 3.28,4.90 3.11,4.84 2.95,4.75 2.80,4.66 2.00,4.88 1.21,5.11 0.30,4.76 -0.60,4.40 -2.07,2.66 -3.55,0.91 -3.64,0.68 -3.72,0.45 -3.73,0.20 -3.74,-0.03 -3.66,-0.27 -3.59,-0.50 -3.45,-0.70 -3.31,-0.90 -3.11,-1.05 -2.91,-1.19 -2.67,-1.26 -2.44,-1.34 -2.19,-1.33 -1.95,-1.32 -1.72,-1.24 -1.48,-1.16 -1.29,-1.00 -1.10,-0.85 -0.97,-0.64 -0.83,-0.44 -0.77,-0.20 -0.71,0.03 -0.73,0.28 -0.75,0.52 -0.85,0.75 -0.95,0.97 -1.11,1.16 -1.27,1.34 -1.49,1.46 -1.70,1.58 -1.94,1.63 -2.18,1.68 -2.43,1.65 -2.67,1.61 -2.89,1.50 -3.11,1.40 -3.29,1.22 -3.46,1.05 -3.57,0.83 -3.68,0.61 -3.72,0.37 -3.75,0.12 -3.70,-0.11 -3.66,-0.35 -3.54,-0.57 -3.42,-0.78 -3.23,-0.95 -3.05,-1.11 -2.83,-1.21 -2.60,-1.31 -2.35,-1.33 -2.11,-1.35 -1.87,-1.29 -1.63,-1.23 -1.42,-1.10 -1.22,-0.97 -1.06,-0.77 -0.91,-0.58 -0.91,-0.58 -0.91,-0.58 0.18,0.74 1.28,2.07 2.02,2.06 2.75,2.05 3.69,2.17 4.62,2.29 4.75,2.42 4.88,2.54 4.97,2.70 5.07,2.85 5.12,3.02 5.18,3.19 5.19,3.37 5.20,3.55 5.17,3.73 5.14,3.91 5.07,4.07 5.00,4.24 4.89,4.38 4.78,4.52 4.64,4.64 4.50,4.75 4.33,4.82 4.17,4.90 3.99,4.93 3.81,4.97 3.63,4.96 3.45,4.95 3.28,4.90 3.11,4.84 2.95,4.75 2.80,4.66 2.48,4.30 2.15,3.95 1.70,3.45 1.25,2.95 0.71,2.40 0.16,1.84 -0.33,1.43 -0.83,1.02 -0.94,0.90 -1.05,0.79 -1.13,0.65 -1.21,0.51 -1.25,0.36 -1.30,0.20 -1.30,0.05 -1.31,-0.10 -1.28,-0.26 -1.25,-0.41 -1.18,-0.56 -1.11,-0.70 -1.01,-0.83 -0.91,-0.95 -0.78,-1.04 -0.65,-1.14 -0.51,-1.20 -0.36,-1.26 -0.20,-1.29 -0.05,-1.31 0.10,-1.30 0.26,-1.29 0.41,-1.24 0.56,-1.19 0.70,-1.10 0.83,-1.02 0.83,-1.02 L 0.83,-1.02 Z"/></g><g transform="translate(383.78125 194.859375) rotate(0 -2.650390625 2.787139892578125)" stroke="none"><path fill="#1971c2" d="M -0.18,1.28 Q -0.18,1.28 -0.93,1.16 -1.69,1.04 -2.28,1.00 -2.88,0.97 -3.43,0.96 -3.99,0.96 -4.86,0.98 -5.74,1.00 -6.40,1.02 -7.06,1.05 -7.23,1.02 -7.40,1.00 -7.56,0.94 -7.72,0.88 -7.86,0.78 -8.00,0.68 -8.12,0.55 -8.23,0.43 -8.31,0.27 -8.39,0.12 -8.43,-0.04 -8.47,-0.20 -8.47,-0.38 -8.47,-0.55 -8.43,-0.72 -8.39,-0.88 -8.31,-1.04 -8.23,-1.19 -8.11,-1.32 -8.00,-1.45 -7.86,-1.54 -7.71,-1.64 -7.55,-1.70 -7.39,-1.76 -7.22,-1.78 -7.05,-1.80 -6.43,-1.82 -5.81,-1.84 -4.90,-1.97 -3.99,-2.11 -2.97,-2.14 -1.96,-2.17 -0.99,-2.19 -0.03,-2.20 0.62,-2.13 1.29,-2.07 1.95,-1.64 2.61,-1.21 2.94,-0.68 3.26,-0.14 3.42,0.58 3.58,1.31 3.49,2.54 3.40,3.77 3.11,4.54 2.83,5.31 2.68,5.75 2.53,6.18 2.44,6.35 2.35,6.52 2.22,6.66 2.09,6.80 1.93,6.91 1.77,7.02 1.59,7.08 1.42,7.15 1.23,7.17 1.04,7.19 0.85,7.17 0.66,7.14 0.48,7.07 0.30,7.00 0.14,6.89 -0.00,6.78 -0.13,6.64 -0.25,6.50 -0.34,6.33 -0.43,6.16 -0.47,5.97 -0.51,5.78 -0.51,5.59 -0.51,5.40 -0.46,5.22 -0.42,5.03 -0.04,3.79 0.32,2.54 0.40,2.29 0.48,2.05 0.63,1.84 0.79,1.63 1.00,1.48 1.21,1.33 1.46,1.26 1.71,1.19 1.96,1.20 2.22,1.21 2.46,1.30 2.71,1.39 2.90,1.55 3.10,1.72 3.24,1.94 3.38,2.16 3.44,2.41 3.50,2.66 3.47,2.92 3.45,3.17 3.35,3.41 3.24,3.65 3.07,3.84 2.89,4.03 2.67,4.15 2.44,4.28 2.19,4.32 1.93,4.37 1.68,4.33 1.42,4.29 1.19,4.18 0.96,4.06 0.78,3.88 0.60,3.69 0.49,3.46 0.37,3.23 0.34,2.97 0.31,2.71 0.36,2.46 0.41,2.21 0.54,1.98 0.67,1.76 0.86,1.59 1.06,1.42 1.30,1.32 1.54,1.22 1.79,1.20 2.05,1.18 2.30,1.25 2.55,1.31 2.77,1.45 2.98,1.59 3.14,1.80 3.30,2.00 3.39,2.24 3.48,2.49 3.48,2.75 3.49,3.00 3.49,3.00 3.49,3.00 3.01,4.59 2.53,6.18 2.44,6.35 2.35,6.52 2.22,6.66 2.09,6.80 1.93,6.91 1.77,7.02 1.59,7.08 1.42,7.15 1.23,7.17 1.04,7.19 0.85,7.17 0.66,7.14 0.48,7.07 0.30,7.00 0.14,6.89 -0.00,6.78 -0.13,6.64 -0.25,6.50 -0.34,6.33 -0.43,6.16 -0.47,5.97 -0.51,5.78 -0.51,5.59 -0.51,5.40 -0.46,5.22 -0.42,5.03 -0.26,4.60 -0.11,4.16 0.12,3.60 0.37,3.04 0.44,2.42 0.52,1.81 0.58,1.25 0.65,0.70 -0.18,0.77 -1.02,0.83 -1.97,0.83 -2.92,0.84 -3.75,0.87 -4.58,0.90 -5.19,0.99 -5.80,1.08 -6.43,1.06 -7.06,1.05 -7.23,1.02 -7.40,1.00 -7.56,0.94 -7.72,0.88 -7.86,0.78 -8.00,0.68 -8.12,0.55 -8.23,0.43 -8.31,0.27 -8.39,0.12 -8.43,-0.04 -8.47,-0.20 -8.47,-0.38 -8.47,-0.55 -8.43,-0.72 -8.39,-0.88 -8.31,-1.04 -8.23,-1.19 -8.11,-1.32 -8.00,-1.45 -7.86,-1.54 -7.71,-1.64 -7.55,-1.70 -7.39,-1.76 -7.22,-1.78 -7.05,-1.80 -6.38,-1.78 -5.72,-1.75 -4.81,-1.70 -3.90,-1.66 -3.30,-1.62 -2.70,-1.59 -2.01,-1.53 -1.32,-1.48 -0.57,-1.38 0.18,-1.28 0.33,-1.24 0.48,-1.20 0.62,-1.13 0.76,-1.05 0.87,-0.94 0.99,-0.84 1.08,-0.71 1.16,-0.57 1.21,-0.43 1.27,-0.28 1.28,-0.12 1.30,0.02 1.28,0.18 1.25,0.34 1.19,0.48 1.13,0.63 1.04,0.75 0.95,0.88 0.83,0.98 0.71,1.08 0.57,1.15 0.43,1.22 0.28,1.26 0.12,1.29 -0.02,1.29 -0.18,1.28 -0.18,1.28 L -0.18,1.28 Z"/></g><g transform="translate(376.1328125 195.01171875) rotate(0 3.029296875 3.509765625)" stroke="none"><path fill="#1971c2" d="M 0.96,-0.75 Q 0.96,-0.75 1.50,-0.00 2.05,0.74 2.41,1.13 2.77,1.53 3.19,1.97 3.61,2.42 4.16,3.12 4.70,3.83 5.80,4.97 6.89,6.11 7.02,6.27 7.14,6.42 7.20,6.61 7.27,6.80 7.27,7.00 7.27,7.20 7.21,7.39 7.15,7.58 7.03,7.74 6.91,7.90 6.75,8.02 6.58,8.13 6.39,8.19 6.20,8.24 6.00,8.23 5.80,8.22 5.62,8.15 5.43,8.08 5.28,7.95 5.12,7.82 5.02,7.65 4.91,7.48 4.87,7.29 4.82,7.10 4.84,6.90 4.86,6.70 4.94,6.52 5.02,6.33 5.16,6.19 5.30,6.04 5.47,5.94 5.65,5.85 5.84,5.81 6.04,5.78 6.24,5.81 6.43,5.84 6.61,5.93 6.79,6.02 6.93,6.17 7.07,6.31 7.15,6.49 7.24,6.67 7.26,6.87 7.29,7.07 7.25,7.26 7.21,7.46 7.10,7.63 7.00,7.80 6.85,7.93 6.70,8.07 6.52,8.14 6.33,8.22 6.13,8.23 5.93,8.24 5.74,8.19 5.55,8.14 5.38,8.03 5.21,7.92 5.21,7.92 5.21,7.92 4.03,6.61 2.85,5.31 2.33,4.69 1.80,4.07 1.36,3.57 0.92,3.07 0.58,2.62 0.23,2.16 -0.36,1.46 -0.96,0.75 -1.04,0.63 -1.12,0.50 -1.16,0.36 -1.20,0.22 -1.21,0.07 -1.22,-0.07 -1.20,-0.21 -1.17,-0.36 -1.11,-0.49 -1.05,-0.63 -0.96,-0.75 -0.87,-0.86 -0.75,-0.95 -0.63,-1.05 -0.50,-1.11 -0.36,-1.17 -0.22,-1.19 -0.07,-1.22 0.07,-1.21 0.21,-1.20 0.36,-1.16 0.50,-1.12 0.62,-1.04 0.75,-0.96 0.86,-0.86 0.96,-0.75 0.96,-0.75 L 0.96,-0.75 Z"/></g><g transform="translate(381.99609375 197.36334228515625) rotate(0 1.46875 0.60345458984375)" stroke="none"><path fill="#1971c2" d="M 1.24,-0.37 Q 1.24,-0.37 1.45,0.37 1.65,1.12 1.77,1.39 1.89,1.65 1.92,1.81 1.94,1.96 1.93,2.12 1.92,2.28 1.87,2.43 1.82,2.58 1.74,2.71 1.66,2.85 1.55,2.96 1.43,3.07 1.30,3.15 1.16,3.23 1.01,3.27 0.86,3.32 0.70,3.33 0.54,3.33 0.39,3.30 0.23,3.27 0.09,3.21 -0.04,3.14 -0.17,3.04 -0.29,2.94 -0.39,2.82 -0.48,2.69 -0.55,2.55 -0.61,2.40 -0.96,1.95 -1.30,1.49 -1.57,1.17 -1.84,0.86 -1.90,0.70 -1.96,0.54 -1.98,0.37 -2.00,0.20 -1.97,0.03 -1.95,-0.12 -1.89,-0.28 -1.83,-0.44 -1.73,-0.58 -1.63,-0.72 -1.50,-0.83 -1.38,-0.94 -1.23,-1.02 -1.07,-1.10 -0.91,-1.13 -0.74,-1.17 -0.57,-1.17 -0.41,-1.17 -0.24,-1.13 -0.08,-1.09 0.06,-1.01 0.21,-0.93 0.34,-0.81 0.46,-0.70 0.56,-0.56 0.65,-0.42 1.19,0.11 1.74,0.64 2.48,0.71 3.23,0.78 2.88,1.39 2.53,2.00 2.78,2.50 3.03,2.99 2.06,2.65 1.09,2.30 -0.59,1.16 -2.27,0.02 -2.48,-0.12 -2.69,-0.26 -2.84,-0.47 -2.99,-0.67 -3.06,-0.91 -3.14,-1.16 -3.14,-1.41 -3.13,-1.66 -3.05,-1.90 -2.97,-2.14 -2.81,-2.34 -2.65,-2.54 -2.44,-2.68 -2.23,-2.82 -1.98,-2.88 -1.74,-2.95 -1.49,-2.93 -1.23,-2.91 -1.00,-2.81 -0.76,-2.72 -0.57,-2.55 -0.38,-2.38 -0.26,-2.16 -0.13,-1.94 -0.08,-1.70 -0.03,-1.45 -0.06,-1.20 -0.09,-0.94 -0.20,-0.72 -0.31,-0.49 -0.49,-0.31 -0.66,-0.12 -0.89,-0.01 -1.11,0.10 -1.37,0.13 -1.62,0.17 -1.87,0.13 -2.12,0.08 -2.34,-0.03 -2.56,-0.15 -2.73,-0.34 -2.90,-0.53 -3.01,-0.76 -3.11,-0.99 -3.13,-1.24 -3.16,-1.49 -3.10,-1.74 -3.04,-1.99 -2.91,-2.20 -2.77,-2.42 -2.58,-2.58 -2.38,-2.74 -2.14,-2.83 -1.91,-2.92 -1.65,-2.93 -1.40,-2.94 -1.16,-2.87 -0.91,-2.80 -0.91,-2.80 -0.91,-2.80 0.91,-1.54 2.74,-0.28 3.39,0.10 4.04,0.48 4.43,0.85 4.81,1.22 5.04,1.88 5.27,2.55 3.55,3.03 1.83,3.52 0.99,3.29 0.15,3.05 -0.32,2.72 -0.79,2.39 -1.32,1.62 -1.84,0.86 -1.90,0.70 -1.96,0.54 -1.98,0.37 -2.00,0.20 -1.97,0.03 -1.95,-0.12 -1.89,-0.28 -1.83,-0.44 -1.73,-0.58 -1.63,-0.72 -1.50,-0.83 -1.38,-0.94 -1.23,-1.02 -1.07,-1.10 -0.91,-1.13 -0.74,-1.17 -0.58,-1.17 -0.41,-1.17 -0.24,-1.13 -0.08,-1.09 0.06,-1.01 0.21,-0.93 0.34,-0.81 0.46,-0.70 0.56,-0.56 0.65,-0.42 0.89,-0.09 1.13,0.22 1.51,0.94 1.89,1.65 1.92,1.80 1.94,1.96 1.93,2.12 1.92,2.28 1.87,2.43 1.82,2.58 1.74,2.71 1.66,2.84 1.55,2.96 1.43,3.07 1.30,3.15 1.16,3.23 1.01,3.27 0.86,3.32 0.70,3.33 0.54,3.33 0.39,3.30 0.23,3.27 0.09,3.21 -0.04,3.14 -0.17,3.04 -0.29,2.94 -0.39,2.82 -0.48,2.69 -0.55,2.55 -0.61,2.40 -0.68,2.13 -0.76,1.85 -1.00,1.11 -1.24,0.37 -1.26,0.21 -1.29,0.06 -1.28,-0.09 -1.27,-0.24 -1.22,-0.39 -1.17,-0.54 -1.09,-0.67 -1.01,-0.80 -0.90,-0.91 -0.78,-1.02 -0.65,-1.10 -0.51,-1.18 -0.37,-1.23 -0.22,-1.27 -0.06,-1.28 0.09,-1.29 0.24,-1.26 0.39,-1.23 0.53,-1.16 0.68,-1.10 0.80,-1.00 0.92,-0.90 1.02,-0.78 1.11,-0.65 1.17,-0.51 1.24,-0.37 1.24,-0.37 L 1.24,-0.37 Z"/></g><g transform="translate(373.5938720703125 141.765625) rotate(0 20.12493896484375 -58.05078125)" stroke="none"><path fill="#1971c2" d="M -0.52,-0.61 Q -0.52,-0.61 0.12,-1.19 0.77,-1.77 1.47,-2.43 2.17,-3.09 3.13,-4.03 4.09,-4.97 5.17,-5.94 6.25,-6.91 7.34,-7.98 8.44,-9.04 9.67,-10.18 10.91,-11.31 12.18,-12.57 13.45,-13.82 15.15,-16.11 16.85,-18.39 18.24,-20.28 19.62,-22.16 20.62,-23.93 21.62,-25.71 22.49,-27.26 23.36,-28.81 24.15,-30.35 24.95,-31.90 25.60,-33.33 26.26,-34.76 26.86,-36.36 27.46,-37.96 28.04,-39.65 28.62,-41.34 29.19,-43.07 29.76,-44.79 30.32,-46.64 30.89,-48.49 31.45,-50.29 32.02,-52.09 32.90,-55.52 33.79,-58.96 34.38,-62.08 34.96,-65.21 35.54,-68.34 36.11,-71.47 36.57,-74.47 37.03,-77.47 37.45,-80.20 37.86,-82.94 38.14,-85.43 38.42,-87.93 38.65,-90.00 38.88,-92.07 38.97,-93.72 39.07,-95.37 39.22,-96.88 39.37,-98.38 39.43,-99.56 39.50,-100.74 39.52,-101.91 39.55,-103.08 39.56,-104.81 39.57,-106.53 39.58,-107.72 39.58,-108.90 39.58,-109.97 39.59,-111.03 39.54,-111.82 39.49,-112.60 39.43,-114.35 39.38,-116.10 39.40,-116.24 39.42,-116.37 39.49,-116.50 39.55,-116.62 39.66,-116.72 39.76,-116.82 39.88,-116.88 40.01,-116.93 40.15,-116.95 40.29,-116.96 40.43,-116.93 40.57,-116.90 40.69,-116.83 40.81,-116.76 40.90,-116.65 40.99,-116.54 41.04,-116.41 41.09,-116.28 41.10,-116.14 41.11,-116.00 41.07,-115.87 41.03,-115.73 40.95,-115.61 40.88,-115.50 40.76,-115.41 40.65,-115.33 40.52,-115.28 40.39,-115.24 40.24,-115.24 40.10,-115.24 39.97,-115.28 39.84,-115.33 39.73,-115.41 39.61,-115.50 39.53,-115.62 39.46,-115.73 39.42,-115.87 39.38,-116.00 39.39,-116.14 39.40,-116.28 39.45,-116.41 39.50,-116.55 39.59,-116.65 39.68,-116.76 39.80,-116.83 39.92,-116.90 40.06,-116.93 40.20,-116.96 40.34,-116.95 40.48,-116.93 40.61,-116.88 40.73,-116.82 40.84,-116.72 40.94,-116.62 41.00,-116.50 41.07,-116.37 41.09,-116.23 41.11,-116.10 41.11,-116.10 41.11,-116.10 41.06,-114.35 41.00,-112.60 40.95,-111.81 40.90,-111.03 40.90,-109.96 40.89,-108.90 40.89,-107.71 40.88,-106.53 40.87,-104.79 40.86,-103.05 40.83,-101.86 40.81,-100.67 40.74,-99.46 40.68,-98.25 40.53,-96.77 40.38,-95.29 40.28,-93.61 40.18,-91.93 39.95,-89.86 39.73,-87.78 39.44,-85.26 39.16,-82.74 38.75,-80.01 38.33,-77.27 37.87,-74.25 37.41,-71.23 36.83,-68.10 36.26,-64.97 35.66,-61.80 35.06,-58.63 34.17,-55.16 33.27,-51.69 32.71,-49.90 32.15,-48.11 31.58,-46.24 31.01,-44.38 30.44,-42.65 29.86,-40.92 29.28,-39.21 28.69,-37.50 28.08,-35.86 27.47,-34.21 26.80,-32.75 26.13,-31.29 25.32,-29.73 24.52,-28.16 23.65,-26.60 22.79,-25.05 21.75,-23.20 20.71,-21.36 19.33,-19.47 17.95,-17.58 16.19,-15.21 14.43,-12.84 13.15,-11.56 11.87,-10.28 10.66,-9.15 9.45,-8.01 8.36,-6.91 7.26,-5.81 6.23,-4.84 5.21,-3.87 4.26,-2.88 3.32,-1.89 2.60,-1.18 1.87,-0.47 1.19,0.06 0.52,0.61 0.43,0.66 0.35,0.71 0.26,0.75 0.17,0.78 0.07,0.79 -0.01,0.80 -0.11,0.78 -0.20,0.77 -0.29,0.73 -0.38,0.70 -0.46,0.64 -0.54,0.59 -0.60,0.51 -0.67,0.44 -0.71,0.35 -0.75,0.26 -0.77,0.17 -0.79,0.08 -0.79,-0.01 -0.79,-0.11 -0.77,-0.20 -0.74,-0.30 -0.69,-0.38 -0.65,-0.47 -0.58,-0.54 -0.52,-0.61 -0.52,-0.61 L -0.52,-0.61 Z"/></g><g transform="translate(417.08984375 171.90625) rotate(0 66.873046875 149.57421875)" stroke="none"><path fill="#1971c2" d="M -0.23,-1.03 Q -0.23,-1.03 0.53,-1.21 1.31,-1.40 2.19,-1.57 3.06,-1.75 3.85,-1.94 4.64,-2.13 5.48,-2.23 6.32,-2.33 7.66,-2.31 9.01,-2.30 10.00,-2.29 10.99,-2.28 11.84,-2.30 12.70,-2.32 13.38,-2.35 14.07,-2.39 14.69,-2.42 15.30,-2.45 15.89,-2.48 16.48,-2.51 17.05,-2.54 17.62,-2.56 18.30,-2.57 18.97,-2.58 19.80,-2.57 20.63,-2.56 21.20,-2.58 21.77,-2.60 22.37,-2.49 22.98,-2.39 23.68,-2.20 24.37,-2.02 24.93,-1.89 25.49,-1.75 26.32,-1.58 27.15,-1.41 27.80,-1.07 28.46,-0.74 29.09,-0.38 29.73,-0.02 30.19,0.26 30.65,0.55 31.26,1.24 31.86,1.93 32.31,2.55 32.76,3.17 33.16,3.77 33.57,4.38 33.92,4.80 34.28,5.22 34.68,5.80 35.09,6.37 35.44,6.77 35.79,7.18 36.27,7.86 36.76,8.54 37.16,9.01 37.56,9.47 38.16,10.59 38.76,11.71 39.21,12.63 39.66,13.55 40.00,14.29 40.34,15.03 40.75,15.72 41.17,16.41 41.59,17.21 42.00,18.00 42.46,19.03 42.92,20.07 43.33,21.09 43.73,22.11 44.20,23.08 44.67,24.04 45.19,25.14 45.72,26.25 46.26,27.39 46.80,28.53 47.35,29.82 47.91,31.10 48.78,32.98 49.66,34.86 50.36,36.45 51.06,38.04 51.67,39.39 52.29,40.73 52.87,41.97 53.46,43.21 54.03,44.41 54.60,45.61 55.06,46.70 55.53,47.78 56.04,48.77 56.54,49.77 57.09,50.88 57.64,51.99 58.19,53.13 58.75,54.27 59.30,55.31 59.86,56.34 60.42,57.46 60.99,58.59 61.98,60.40 62.97,62.21 63.82,63.64 64.67,65.08 65.36,66.25 66.04,67.43 66.67,68.61 67.29,69.79 67.98,71.07 68.67,72.35 69.40,73.68 70.13,75.01 70.87,76.48 71.62,77.95 72.27,79.60 72.92,81.26 73.52,82.97 74.12,84.69 74.80,86.28 75.48,87.88 76.10,89.60 76.72,91.31 77.63,93.82 78.54,96.33 79.14,98.20 79.75,100.06 80.23,101.75 80.70,103.45 81.22,104.93 81.74,106.41 82.18,107.96 82.63,109.51 83.14,111.05 83.64,112.58 84.18,114.25 84.73,115.92 85.28,117.87 85.84,119.82 86.51,122.22 87.18,124.61 87.89,127.43 88.61,130.24 89.46,133.68 90.30,137.12 92.06,143.27 93.82,149.42 95.22,154.51 96.62,159.60 97.97,164.22 99.31,168.84 100.54,173.16 101.76,177.48 102.82,181.44 103.88,185.41 104.76,189.01 105.65,192.60 106.56,195.91 107.47,199.22 108.51,202.52 109.54,205.83 110.63,209.48 111.72,213.13 112.94,217.15 114.16,221.16 115.43,225.33 116.71,229.50 118.65,236.32 120.60,243.14 122.08,248.16 123.55,253.18 124.72,257.45 125.89,261.72 126.92,265.55 127.96,269.38 128.83,272.80 129.71,276.22 130.40,279.02 131.10,281.82 131.71,284.01 132.33,286.20 132.81,288.03 133.29,289.87 133.61,291.33 133.92,292.80 134.06,295.03 134.20,297.26 134.30,298.88 134.40,300.49 134.39,300.60 134.37,300.71 134.33,300.80 134.29,300.90 134.21,300.98 134.14,301.05 134.05,301.10 133.95,301.16 133.85,301.17 133.75,301.19 133.64,301.17 133.54,301.16 133.44,301.11 133.35,301.06 133.27,300.98 133.20,300.91 133.15,300.81 133.11,300.71 133.10,300.61 133.09,300.50 133.11,300.40 133.13,300.29 133.18,300.20 133.24,300.11 133.32,300.04 133.40,299.97 133.50,299.93 133.60,299.89 133.70,299.89 133.81,299.88 133.91,299.91 134.01,299.94 134.10,300.00 134.19,300.05 134.25,300.14 134.32,300.22 134.35,300.32 134.39,300.42 134.39,300.53 134.39,300.64 134.36,300.74 134.32,300.84 134.26,300.92 134.20,301.01 134.11,301.07 134.02,301.13 133.92,301.16 133.82,301.19 133.71,301.18 133.60,301.18 133.50,301.14 133.41,301.10 133.32,301.03 133.24,300.96 133.19,300.87 133.13,300.78 133.11,300.68 133.09,300.57 133.09,300.57 133.09,300.57 132.99,298.96 132.89,297.34 132.76,295.21 132.64,293.07 132.33,291.64 132.02,290.20 131.54,288.38 131.07,286.55 130.44,284.35 129.82,282.14 129.13,279.34 128.43,276.55 127.56,273.14 126.69,269.72 125.66,265.89 124.62,262.07 123.46,257.81 122.29,253.55 120.81,248.52 119.34,243.50 117.39,236.69 115.45,229.88 114.18,225.71 112.90,221.54 111.68,217.52 110.46,213.51 109.38,209.86 108.29,206.22 107.25,202.89 106.21,199.57 105.29,196.24 104.37,192.92 103.49,189.33 102.61,185.75 101.55,181.79 100.49,177.83 99.27,173.52 98.05,169.21 96.70,164.58 95.35,159.95 93.95,154.86 92.56,149.78 90.79,143.61 89.03,137.43 88.18,134.00 87.34,130.57 86.62,127.77 85.91,124.97 85.24,122.57 84.58,120.18 84.03,118.25 83.48,116.32 82.94,114.66 82.39,112.99 81.88,111.43 81.37,109.87 80.93,108.36 80.50,106.84 79.97,105.32 79.44,103.81 78.97,102.13 78.50,100.46 77.90,98.62 77.30,96.78 76.39,94.27 75.48,91.76 74.88,90.08 74.27,88.40 73.57,86.76 72.88,85.12 72.29,83.43 71.70,81.74 71.07,80.14 70.45,78.54 69.71,77.09 68.97,75.64 68.25,74.31 67.52,72.98 66.82,71.69 66.13,70.41 65.52,69.25 64.91,68.09 64.22,66.92 63.54,65.75 62.68,64.29 61.81,62.84 60.81,61.01 59.81,59.18 59.25,58.07 58.70,56.96 58.13,55.91 57.56,54.85 57.01,53.71 56.45,52.57 55.91,51.47 55.36,50.37 54.84,49.34 54.31,48.30 53.85,47.25 53.39,46.19 52.82,44.99 52.24,43.79 51.65,42.54 51.05,41.30 50.43,39.95 49.80,38.60 49.10,37.03 48.39,35.45 47.50,33.56 46.60,31.68 46.04,30.43 45.48,29.18 44.91,28.05 44.34,26.93 43.79,25.85 43.24,24.78 42.69,23.79 42.15,22.80 41.70,21.85 41.25,20.90 40.71,19.94 40.17,18.98 39.77,18.24 39.37,17.51 38.87,16.70 38.38,15.90 38.09,15.23 37.81,14.56 37.31,13.73 36.81,12.91 36.19,12.04 35.56,11.16 35.12,10.64 34.68,10.11 34.20,9.51 33.71,8.91 33.31,8.42 32.90,7.92 32.55,7.42 32.20,6.92 31.78,6.40 31.37,5.88 30.98,5.33 30.59,4.77 30.20,4.25 29.80,3.73 29.12,3.07 28.44,2.42 27.39,1.86 26.34,1.31 25.58,1.10 24.81,0.88 23.92,0.62 23.03,0.37 22.39,0.09 21.75,-0.17 21.19,-0.19 20.63,-0.22 19.80,-0.20 18.97,-0.19 18.30,-0.20 17.62,-0.21 17.05,-0.23 16.48,-0.26 15.89,-0.29 15.31,-0.31 14.69,-0.35 14.08,-0.38 13.39,-0.41 12.71,-0.43 11.86,-0.44 11.02,-0.45 10.04,-0.41 9.06,-0.37 7.80,-0.29 6.54,-0.20 5.84,-0.14 5.13,-0.08 4.32,0.10 3.50,0.30 2.64,0.49 1.78,0.69 1.01,0.86 0.23,1.03 0.10,1.05 -0.01,1.06 -0.14,1.04 -0.27,1.02 -0.39,0.98 -0.51,0.93 -0.61,0.85 -0.72,0.78 -0.80,0.68 -0.88,0.58 -0.94,0.47 -1.00,0.35 -1.03,0.23 -1.05,0.10 -1.05,-0.01 -1.05,-0.14 -1.02,-0.27 -0.98,-0.39 -0.92,-0.50 -0.86,-0.62 -0.77,-0.71 -0.69,-0.80 -0.58,-0.88 -0.47,-0.95 -0.35,-0.99 -0.23,-1.03 -0.23,-1.03 L -0.23,-1.03 Z"/></g><g transform="translate(427.359375 19.17578125) rotate(0 4.12890625 0.126953125)" stroke="none"><path fill="#1971c2" d="M 0.07,-1.16 Q 0.07,-1.16 1.27,-1.02 2.47,-0.88 3.29,-0.85 4.11,-0.82 4.68,-0.84 5.25,-0.86 6.75,-0.88 8.26,-0.91 8.44,-0.88 8.63,-0.84 8.80,-0.76 8.96,-0.67 9.09,-0.53 9.22,-0.39 9.30,-0.22 9.38,-0.05 9.40,0.13 9.42,0.32 9.38,0.50 9.33,0.69 9.24,0.85 9.14,1.01 8.99,1.13 8.85,1.25 8.67,1.32 8.50,1.39 8.31,1.40 8.12,1.41 7.94,1.36 7.76,1.30 7.60,1.20 7.45,1.09 7.33,0.94 7.22,0.79 7.16,0.61 7.10,0.43 7.10,0.24 7.10,0.05 7.16,-0.11 7.23,-0.29 7.34,-0.44 7.46,-0.59 7.61,-0.70 7.77,-0.80 7.95,-0.85 8.13,-0.90 8.32,-0.89 8.51,-0.88 8.68,-0.81 8.86,-0.74 9.00,-0.61 9.15,-0.49 9.24,-0.33 9.34,-0.17 9.38,0.01 9.42,0.19 9.40,0.38 9.37,0.57 9.29,0.74 9.21,0.91 9.08,1.04 8.95,1.18 8.79,1.27 8.62,1.36 8.43,1.39 8.25,1.42 8.25,1.42 8.25,1.42 6.72,1.37 5.19,1.33 4.62,1.28 4.04,1.24 3.19,1.20 2.34,1.17 1.13,1.16 -0.07,1.16 -0.20,1.13 -0.34,1.11 -0.47,1.05 -0.60,0.99 -0.71,0.91 -0.82,0.82 -0.91,0.71 -0.99,0.60 -1.05,0.47 -1.11,0.34 -1.13,0.20 -1.16,0.07 -1.15,-0.06 -1.14,-0.21 -1.10,-0.34 -1.06,-0.47 -0.98,-0.59 -0.91,-0.71 -0.81,-0.81 -0.71,-0.91 -0.59,-0.98 -0.47,-1.06 -0.34,-1.10 -0.20,-1.14 -0.06,-1.15 0.07,-1.16 0.07,-1.16 L 0.07,-1.16 Z"/></g><g transform="translate(448.27734375 19.378936767578125) rotate(0 12.279296875 -3.3066558837890625)" stroke="none"><path fill="#1971c2" d="M -1.25,0 Q -1.25,0 -1.24,-0.80 -1.22,-1.60 -1.07,-2.52 -0.93,-3.44 -0.15,-4.34 0.61,-5.24 1.27,-5.64 1.93,-6.04 2.59,-6.22 3.24,-6.41 3.75,-6.73 4.27,-7.05 4.86,-7.20 5.45,-7.35 6.01,-7.40 6.57,-7.45 7.36,-7.22 8.16,-6.99 8.84,-6.58 9.52,-6.16 10.29,-5.53 11.06,-4.89 11.46,-4.41 11.87,-3.93 12.45,-3.31 13.02,-2.70 13.69,-2.28 14.36,-1.86 15.06,-1.30 15.76,-0.75 16.41,-0.38 17.05,-0.01 17.70,0.13 18.35,0.28 18.87,0.48 19.40,0.67 20.17,0.89 20.94,1.11 21.75,1.14 22.57,1.18 23.01,0.22 23.45,-0.72 23.51,-1.37 23.57,-2.02 23.52,-2.88 23.47,-3.74 23.31,-4.63 23.16,-5.51 23.09,-6.06 23.02,-6.60 22.35,-7.14 21.67,-7.68 21.03,-7.72 20.38,-7.77 19.73,-7.58 19.07,-7.40 18.49,-6.57 17.91,-5.74 17.51,-5.36 17.12,-4.98 16.56,-4.49 16.00,-4.00 15.59,-3.56 15.18,-3.13 14.54,-2.77 13.91,-2.41 13.48,-2.01 13.06,-1.61 12.27,-1.15 11.49,-0.69 10.77,-0.18 10.06,0.32 9.12,0.86 8.17,1.40 7.46,1.80 6.75,2.19 6.17,2.47 5.59,2.76 4.96,3.00 4.32,3.24 3.50,3.35 2.67,3.47 2.10,3.51 1.52,3.55 0.84,3.32 0.17,3.10 -0.38,2.55 -0.94,2.00 -1.28,1.41 -1.63,0.82 -1.91,-1.37 -2.19,-3.58 -2.15,-3.82 -2.12,-4.07 -2.02,-4.29 -1.91,-4.52 -1.73,-4.69 -1.56,-4.87 -1.34,-4.98 -1.12,-5.10 -0.87,-5.13 -0.62,-5.17 -0.38,-5.12 -0.14,-5.08 0.07,-4.96 0.29,-4.84 0.46,-4.65 0.63,-4.47 0.73,-4.24 0.83,-4.02 0.85,-3.77 0.87,-3.52 0.81,-3.28 0.76,-3.04 0.62,-2.83 0.49,-2.62 0.30,-2.46 0.11,-2.30 -0.12,-2.21 -0.35,-2.13 -0.60,-2.12 -0.84,-2.11 -1.08,-2.18 -1.32,-2.25 -1.52,-2.39 -1.73,-2.54 -1.87,-2.74 -2.02,-2.94 -2.10,-3.17 -2.17,-3.41 -2.17,-3.66 -2.16,-3.91 -2.08,-4.14 -1.99,-4.38 -1.84,-4.57 -1.69,-4.77 -1.48,-4.90 -1.27,-5.04 -1.03,-5.10 -0.79,-5.16 -0.54,-5.14 -0.29,-5.13 -0.06,-5.03 0.15,-4.93 0.34,-4.77 0.53,-4.60 0.65,-4.39 0.78,-4.17 0.82,-3.93 0.87,-3.69 0.87,-3.69 0.87,-3.69 1.11,-1.83 1.34,0.01 1.81,0.27 2.27,0.54 3.23,0.29 4.18,0.05 5.09,-0.43 6.00,-0.92 6.81,-1.35 7.63,-1.79 8.39,-2.29 9.15,-2.78 9.96,-3.26 10.77,-3.74 11.53,-4.39 12.28,-5.03 12.92,-5.42 13.56,-5.81 14.29,-6.52 15.02,-7.23 15.55,-7.82 16.07,-8.40 17.08,-9.36 18.09,-10.32 18.70,-10.51 19.30,-10.69 20.48,-10.71 21.67,-10.72 22.43,-10.53 23.20,-10.33 23.67,-10.05 24.14,-9.76 24.85,-9.13 25.56,-8.50 25.88,-7.37 26.20,-6.25 26.37,-5.26 26.54,-4.27 26.64,-3.59 26.75,-2.90 26.74,-2.33 26.72,-1.76 26.66,-1.13 26.61,-0.51 26.45,0.07 26.28,0.66 26.06,1.27 25.84,1.89 25.45,2.71 25.07,3.52 24.32,3.91 23.57,4.30 23.02,4.30 22.48,4.30 21.49,4.24 20.50,4.18 19.75,4.05 19.00,3.92 18.28,3.60 17.56,3.29 17.00,3.15 16.44,3.01 15.59,2.61 14.74,2.21 13.90,1.60 13.07,0.99 12.45,0.50 11.83,0.01 11.05,-0.66 10.28,-1.33 9.74,-2.02 9.21,-2.71 8.63,-3.25 8.04,-3.80 7.35,-4.24 6.65,-4.68 6.04,-4.67 5.43,-4.66 4.61,-4.32 3.79,-3.99 3.02,-3.80 2.24,-3.61 1.78,-3.24 1.33,-2.86 1.27,-2.23 1.22,-1.60 1.24,-0.80 1.25,0 1.24,0.15 1.22,0.30 1.16,0.44 1.11,0.58 1.02,0.70 0.94,0.83 0.82,0.93 0.71,1.03 0.58,1.10 0.44,1.17 0.29,1.21 0.15,1.24 -0.00,1.24 -0.15,1.24 -0.29,1.21 -0.44,1.17 -0.58,1.10 -0.71,1.03 -0.82,0.93 -0.94,0.83 -1.02,0.70 -1.11,0.58 -1.16,0.44 -1.22,0.30 -1.24,0.15 -1.25,-0.00 -1.25,-0.00 L -1.25,0 Z"/></g><g transform="translate(569.33203125 464.625) rotate(0 -0.421875 5.15234375)" stroke="none"><path fill="#1971c2" d="M 1.24,0.18 Q 1.24,0.18 1.00,1.26 0.76,2.34 0.71,3.00 0.66,3.67 0.64,4.35 0.62,5.04 0.66,5.89 0.70,6.75 0.58,8.57 0.46,10.39 0.41,10.60 0.36,10.80 0.25,10.98 0.14,11.16 -0.02,11.30 -0.18,11.43 -0.38,11.51 -0.58,11.58 -0.79,11.59 -1.00,11.60 -1.21,11.54 -1.41,11.48 -1.58,11.36 -1.76,11.24 -1.88,11.06 -2.01,10.89 -2.07,10.69 -2.13,10.49 -2.13,10.28 -2.13,10.07 -2.06,9.87 -1.99,9.67 -1.85,9.50 -1.72,9.33 -1.55,9.22 -1.37,9.10 -1.16,9.05 -0.96,9.00 -0.75,9.01 -0.54,9.03 -0.34,9.11 -0.14,9.19 0.00,9.33 0.16,9.47 0.27,9.65 0.38,9.84 0.42,10.04 0.46,10.25 0.43,10.46 0.41,10.67 0.32,10.86 0.22,11.05 0.07,11.20 -0.06,11.36 -0.25,11.45 -0.44,11.55 -0.65,11.58 -0.86,11.61 -1.07,11.57 -1.28,11.53 -1.46,11.43 -1.65,11.33 -1.79,11.17 -1.94,11.02 -2.02,10.82 -2.11,10.63 -2.13,10.42 -2.15,10.21 -2.15,10.21 -2.15,10.21 -1.98,8.46 -1.82,6.72 -1.75,5.83 -1.67,4.94 -1.63,4.19 -1.59,3.44 -1.50,2.73 -1.41,2.01 -1.33,0.91 -1.24,-0.18 -1.20,-0.33 -1.16,-0.47 -1.08,-0.61 -1.01,-0.74 -0.91,-0.85 -0.80,-0.96 -0.67,-1.04 -0.55,-1.12 -0.40,-1.17 -0.26,-1.22 -0.11,-1.24 0.03,-1.25 0.18,-1.23 0.33,-1.21 0.47,-1.15 0.61,-1.09 0.73,-1.00 0.86,-0.91 0.95,-0.80 1.05,-0.68 1.12,-0.54 1.18,-0.41 1.22,-0.26 1.25,-0.11 1.24,0.03 1.24,0.18 1.24,0.18 L 1.24,0.18 Z"/></g><g transform="translate(562.453125 468.63671875) rotate(0 5.515625 0.81640625)" stroke="none"><path fill="#1971c2" d="M 0.17,-1.28 Q 0.17,-1.28 0.90,-1.17 1.63,-1.06 2.60,-1.04 3.56,-1.02 4.46,-1.03 5.35,-1.05 6.07,-0.93 6.79,-0.81 9.11,-0.28 11.44,0.23 11.65,0.34 11.86,0.44 12.03,0.60 12.20,0.77 12.31,0.98 12.41,1.19 12.45,1.42 12.48,1.65 12.44,1.88 12.40,2.11 12.28,2.32 12.17,2.53 12.00,2.69 11.82,2.84 11.61,2.94 11.39,3.04 11.16,3.06 10.92,3.08 10.69,3.02 10.47,2.97 10.27,2.85 10.07,2.72 9.92,2.54 9.77,2.36 9.68,2.14 9.60,1.92 9.59,1.68 9.58,1.45 9.65,1.22 9.72,1.00 9.85,0.80 9.99,0.61 10.18,0.47 10.37,0.33 10.59,0.26 10.81,0.19 11.05,0.19 11.29,0.20 11.51,0.28 11.73,0.35 11.91,0.50 12.10,0.65 12.23,0.84 12.36,1.04 12.42,1.27 12.47,1.49 12.46,1.73 12.44,1.96 12.35,2.18 12.26,2.40 12.10,2.58 11.95,2.75 11.75,2.87 11.54,2.99 11.31,3.03 11.08,3.08 10.85,3.05 10.61,3.02 10.61,3.02 10.61,3.02 8.96,2.55 7.32,2.08 6.32,1.91 5.33,1.75 4.40,1.71 3.47,1.66 2.92,1.63 2.37,1.60 1.82,1.53 1.28,1.47 0.55,1.38 -0.17,1.28 -0.32,1.24 -0.48,1.20 -0.61,1.13 -0.75,1.05 -0.87,0.95 -0.98,0.84 -1.07,0.71 -1.16,0.58 -1.21,0.43 -1.26,0.29 -1.28,0.13 -1.30,-0.02 -1.27,-0.17 -1.25,-0.33 -1.20,-0.47 -1.14,-0.62 -1.05,-0.75 -0.95,-0.87 -0.84,-0.98 -0.72,-1.08 -0.58,-1.15 -0.44,-1.22 -0.28,-1.25 -0.13,-1.29 0.02,-1.29 0.17,-1.28 0.17,-1.28 L 0.17,-1.28 Z"/></g><g transform="translate(589.5234375 470.734375) rotate(0 2.359375 -4.720703125)" stroke="none"><path fill="#1971c2" d="M -1.04,-0.58 Q -1.04,-0.58 -0.49,-1.45 0.05,-2.31 0.35,-2.91 0.65,-3.51 1.25,-4.25 1.84,-5.00 2.22,-5.48 2.59,-5.95 3.07,-6.49 3.55,-7.02 4.04,-7.55 4.52,-8.07 5.02,-8.52 5.52,-8.97 6.16,-9.25 6.80,-9.53 7.53,-10.10 8.27,-10.66 8.76,-10.86 9.26,-11.06 9.84,-11.20 10.42,-11.33 11.43,-11.38 12.45,-11.42 13.18,-11.15 13.90,-10.87 14.56,-10.41 15.22,-9.96 15.59,-9.25 15.95,-8.55 16.03,-7.98 16.10,-7.41 16.21,-6.75 16.31,-6.08 16.41,-5.24 16.51,-4.40 16.43,-3.82 16.36,-3.24 16.03,-2.41 15.69,-1.58 15.11,-0.80 14.53,-0.03 13.94,0.41 13.36,0.85 12.64,1.18 11.92,1.51 11.38,1.66 10.85,1.81 10.20,1.87 9.54,1.94 8.86,1.84 8.17,1.74 7.38,1.37 6.60,0.99 5.78,0.78 4.97,0.58 4.44,0.41 3.92,0.24 3.02,-0.25 2.11,-0.75 1.47,-1.19 0.82,-1.63 0.31,-2.00 -0.20,-2.36 -0.95,-3.00 -1.70,-3.65 -2.31,-4.11 -2.93,-4.57 -3.89,-4.86 -4.84,-5.14 -5.73,-5.20 -6.63,-5.25 -7.77,-5.38 -8.91,-5.50 -8.66,-4.81 -8.41,-4.11 -8.52,-3.58 -8.63,-3.04 -8.30,-2.51 -7.97,-1.97 -7.63,-1.55 -7.29,-1.12 -6.42,-1.06 -5.55,-1.00 -4.63,-0.99 -3.71,-0.98 -3.06,-1.19 -2.42,-1.39 -2.07,-1.91 -1.71,-2.43 -0.70,-3.80 0.30,-5.17 0.47,-5.35 0.64,-5.52 0.86,-5.63 1.07,-5.74 1.32,-5.78 1.56,-5.82 1.80,-5.77 2.04,-5.73 2.25,-5.61 2.47,-5.49 2.63,-5.31 2.80,-5.13 2.90,-4.91 3.00,-4.69 3.02,-4.44 3.04,-4.20 2.99,-3.96 2.93,-3.72 2.80,-3.51 2.67,-3.31 2.48,-3.15 2.29,-3.00 2.06,-2.91 1.84,-2.82 1.59,-2.81 1.35,-2.80 1.11,-2.87 0.88,-2.94 0.68,-3.08 0.48,-3.22 0.33,-3.42 0.19,-3.62 0.11,-3.85 0.04,-4.08 0.04,-4.33 0.05,-4.57 0.13,-4.80 0.21,-5.03 0.36,-5.23 0.51,-5.42 0.72,-5.55 0.92,-5.69 1.16,-5.75 1.39,-5.81 1.64,-5.79 1.88,-5.78 2.11,-5.68 2.33,-5.59 2.52,-5.43 2.70,-5.26 2.82,-5.05 2.95,-4.84 3.00,-4.60 3.05,-4.36 3.02,-4.12 2.98,-3.88 2.88,-3.66 2.77,-3.44 2.77,-3.44 2.77,-3.44 1.78,-2.08 0.78,-0.73 0.46,-0.28 0.13,0.16 -0.36,0.65 -0.85,1.13 -1.74,1.57 -2.63,2.02 -3.19,2.03 -3.75,2.04 -4.76,2.01 -5.77,1.97 -6.35,1.92 -6.94,1.87 -7.56,1.72 -8.19,1.56 -8.82,1.18 -9.44,0.80 -9.89,0.28 -10.34,-0.24 -10.94,-1.15 -11.54,-2.06 -11.60,-2.73 -11.66,-3.39 -11.49,-4.04 -11.32,-4.70 -11.00,-5.64 -10.69,-6.58 -10.32,-7.11 -9.95,-7.65 -8.76,-7.82 -7.57,-7.98 -7.01,-7.96 -6.46,-7.93 -5.82,-7.88 -5.18,-7.83 -4.58,-7.70 -3.98,-7.57 -3.44,-7.36 -2.89,-7.15 -2.20,-6.86 -1.51,-6.57 -0.85,-6.11 -0.19,-5.65 0.59,-5.13 1.37,-4.62 1.88,-4.27 2.38,-3.91 2.85,-3.59 3.33,-3.27 4.54,-2.83 5.74,-2.38 6.28,-2.25 6.81,-2.11 7.78,-1.73 8.75,-1.34 9.41,-1.30 10.06,-1.25 10.75,-1.49 11.43,-1.72 11.98,-2.22 12.54,-2.71 12.86,-3.23 13.19,-3.75 13.22,-4.49 13.26,-5.23 13.14,-5.75 13.02,-6.28 13.14,-7.04 13.27,-7.80 12.80,-8.15 12.34,-8.50 11.43,-8.52 10.52,-8.54 9.72,-8.35 8.92,-8.15 8.31,-7.67 7.70,-7.18 6.97,-6.81 6.24,-6.44 5.76,-5.93 5.27,-5.43 4.81,-4.94 4.34,-4.45 3.95,-4.04 3.56,-3.63 3.09,-3.04 2.62,-2.45 2.28,-1.85 1.94,-1.25 1.49,-0.33 1.04,0.58 0.96,0.70 0.87,0.82 0.76,0.91 0.65,1.00 0.52,1.07 0.39,1.13 0.25,1.16 0.11,1.19 -0.03,1.19 -0.17,1.19 -0.31,1.15 -0.45,1.11 -0.58,1.04 -0.71,0.97 -0.81,0.87 -0.92,0.77 -1.00,0.65 -1.08,0.52 -1.12,0.39 -1.17,0.25 -1.19,0.11 -1.20,-0.03 -1.18,-0.17 -1.16,-0.32 -1.10,-0.45 -1.04,-0.58 -1.04,-0.58 L -1.04,-0.58 Z"/></g></svg>