<?xml version="1.0" encoding="iso-8859-1"?>
<!-- Uploaded to: SVG Repo, www.svgrepo.com, Generator: SVG Repo Mixer Tools -->
<svg fill="#000000" height="800px" width="800px" version="1.1" id="Layer_1" xmlns="http://www.w3.org/2000/svg" xmlns:xlink="http://www.w3.org/1999/xlink" 
	 viewBox="0 0 512 512" xml:space="preserve">
<g>
	<g>
		<path d="M505.528,100.039L411.952,6.46C407.816,2.325,402.206,0,396.357,0c-5.851,0-11.461,2.325-15.597,6.461l-62.342,62.347
			c-0.013,0.013-0.029,0.025-0.041,0.038c-0.013,0.013-0.025,0.029-0.038,0.043l-62.224,62.231c-0.038,0.038-0.084,0.072-0.122,0.11
			c-0.04,0.04-0.072,0.082-0.11,0.122l-62.109,62.117c-0.053,0.051-0.112,0.096-0.163,0.148c-0.053,0.053-0.097,0.112-0.15,0.165
			l-61.999,62.006c-0.078,0.075-0.16,0.138-0.237,0.215c-0.076,0.076-0.14,0.16-0.215,0.237l-61.85,61.855
			c-0.103,0.101-0.218,0.187-0.322,0.291c-0.103,0.104-0.191,0.218-0.293,0.323L6.47,380.791
			c-8.612,8.614-8.611,22.578,0.001,31.191l93.559,93.559c4.307,4.307,9.952,6.46,15.595,6.46c5.645,0,11.29-2.153,15.595-6.46
			l374.308-374.309C514.142,122.617,514.142,108.653,505.528,100.039z M115.624,458.752l-62.367-62.367l31.191-31.194l25.978,25.978
			c4.307,4.307,9.952,6.461,15.595,6.461s11.29-2.154,15.595-6.46c8.614-8.614,8.614-22.578,0-31.192l-25.979-25.979l31.192-31.195
			l15.584,15.584c4.307,4.307,9.952,6.461,15.595,6.461c5.645,0,11.29-2.153,15.595-6.461c8.614-8.614,8.614-22.578,0-31.192
			l-15.585-15.585l31.191-31.194l25.984,25.984c4.307,4.307,9.952,6.46,15.595,6.46c5.643,0,11.29-2.154,15.595-6.46
			c8.614-8.614,8.614-22.578,0-31.192l-25.985-25.987l31.192-31.195l15.589,15.589c4.307,4.307,9.952,6.461,15.597,6.461
			c5.645,0,11.29-2.153,15.595-6.461c8.614-8.614,8.614-22.578,0-31.192l-15.591-15.591l31.191-31.195l25.991,25.991
			c4.307,4.307,9.952,6.461,15.595,6.461c5.645,0,11.29-2.153,15.597-6.461c8.614-8.614,8.614-22.578,0-31.192l-25.993-25.993
			l31.192-31.195l62.384,62.386L115.624,458.752z"/>
	</g>
</g>
</svg>